<svg width="19" height="19" viewBox="0 0 19 19" fill="none" xmlns="http://www.w3.org/2000/svg">
                  <path d="M9.5 2.1207C11.9047 2.1207 12.1895 2.13125 13.1352 2.17344C14.0141 2.21211 14.4887 2.35977 14.8051 2.48281C15.2234 2.64453 15.5258 2.84141 15.8387 3.1543C16.1551 3.4707 16.3484 3.76953 16.5102 4.18789C16.6332 4.5043 16.7809 4.98242 16.8195 5.85781C16.8617 6.80703 16.8723 7.0918 16.8723 9.49297C16.8723 11.8977 16.8617 12.1824 16.8195 13.1281C16.7809 14.007 16.6332 14.4816 16.5102 14.798C16.3484 15.2164 16.1516 15.5187 15.8387 15.8316C15.5223 16.148 15.2234 16.3414 14.8051 16.5031C14.4887 16.6262 14.0105 16.7738 13.1352 16.8125C12.1859 16.8547 11.9012 16.8652 9.5 16.8652C7.09531 16.8652 6.81055 16.8547 5.86484 16.8125C4.98594 16.7738 4.51133 16.6262 4.19492 16.5031C3.77656 16.3414 3.47422 16.1445 3.16133 15.8316C2.84492 15.5152 2.65156 15.2164 2.48984 14.798C2.3668 14.4816 2.21914 14.0035 2.18047 13.1281C2.13828 12.1789 2.12773 11.8941 2.12773 9.49297C2.12773 7.08828 2.13828 6.80351 2.18047 5.85781C2.21914 4.97891 2.3668 4.5043 2.48984 4.18789C2.65156 3.76953 2.84844 3.46719 3.16133 3.1543C3.47773 2.83789 3.77656 2.64453 4.19492 2.48281C4.51133 2.35977 4.98945 2.21211 5.86484 2.17344C6.81055 2.13125 7.09531 2.1207 9.5 2.1207ZM9.5 0.5C7.05664 0.5 6.75078 0.510547 5.79102 0.552734C4.83477 0.594922 4.17734 0.749609 3.60781 0.971094C3.01367 1.20312 2.51094 1.50898 2.01172 2.01172C1.50898 2.51094 1.20313 3.01367 0.971094 3.6043C0.749609 4.17734 0.594922 4.83125 0.552734 5.7875C0.510547 6.75078 0.5 7.05664 0.5 9.5C0.5 11.9434 0.510547 12.2492 0.552734 13.209C0.594922 14.1652 0.749609 14.8227 0.971094 15.3922C1.20313 15.9863 1.50898 16.4891 2.01172 16.9883C2.51094 17.4875 3.01367 17.7969 3.6043 18.0254C4.17734 18.2469 4.83125 18.4016 5.7875 18.4437C6.74727 18.4859 7.05312 18.4965 9.49648 18.4965C11.9398 18.4965 12.2457 18.4859 13.2055 18.4437C14.1617 18.4016 14.8191 18.2469 15.3887 18.0254C15.9793 17.7969 16.482 17.4875 16.9813 16.9883C17.4805 16.4891 17.7898 15.9863 18.0184 15.3957C18.2398 14.8227 18.3945 14.1687 18.4367 13.2125C18.4789 12.2527 18.4895 11.9469 18.4895 9.50352C18.4895 7.06016 18.4789 6.7543 18.4367 5.79453C18.3945 4.83828 18.2398 4.18086 18.0184 3.61133C17.7969 3.01367 17.491 2.51094 16.9883 2.01172C16.4891 1.5125 15.9863 1.20312 15.3957 0.974609C14.8227 0.753125 14.1688 0.598437 13.2125 0.55625C12.2492 0.510547 11.9434 0.5 9.5 0.5Z" fill="#278AEB" />
                  <path d="M9.5 4.87695C6.94766 4.87695 4.87695 6.94766 4.87695 9.5C4.87695 12.0523 6.94766 14.123 9.5 14.123C12.0523 14.123 14.123 12.0523 14.123 9.5C14.123 6.94766 12.0523 4.87695 9.5 4.87695ZM9.5 12.4988C7.84414 12.4988 6.50117 11.1559 6.50117 9.5C6.50117 7.84414 7.84414 6.50117 9.5 6.50117C11.1559 6.50117 12.4988 7.84414 12.4988 9.5C12.4988 11.1559 11.1559 12.4988 9.5 12.4988Z" fill="#278AEB" />
                  <path d="M15.3852 4.69404C15.3852 5.2917 14.9 5.77334 14.3059 5.77334C13.7082 5.77334 13.2266 5.28819 13.2266 4.69404C13.2266 4.09639 13.7117 3.61475 14.3059 3.61475C14.9 3.61475 15.3852 4.0999 15.3852 4.69404Z" fill="#278AEB" />
                </svg>