<svg width="19" height="19" viewBox="0 0 19 19" fill="none" xmlns="http://www.w3.org/2000/svg">
                  <path d="M17.1676 0.5H1.82891C1.09414 0.5 0.5 1.08008 0.5 1.79727V17.1992C0.5 17.9164 1.09414 18.5 1.82891 18.5H17.1676C17.9023 18.5 18.5 17.9164 18.5 17.2027V1.79727C18.5 1.08008 17.9023 0.5 17.1676 0.5ZM5.84023 15.8387H3.16836V7.24648H5.84023V15.8387ZM4.5043 6.07578C3.64648 6.07578 2.95391 5.3832 2.95391 4.52891C2.95391 3.67461 3.64648 2.98203 4.5043 2.98203C5.35859 2.98203 6.05117 3.67461 6.05117 4.52891C6.05117 5.37969 5.35859 6.07578 4.5043 6.07578ZM15.8387 15.8387H13.1703V11.6621C13.1703 10.6672 13.1527 9.38398 11.7816 9.38398C10.393 9.38398 10.182 10.4703 10.182 11.5918V15.8387H7.51719V7.24648H10.0766V8.4207H10.1117C10.4668 7.7457 11.3387 7.03203 12.6359 7.03203C15.3395 7.03203 15.8387 8.81094 15.8387 11.1242V15.8387Z" fill="#278AEB" />
                </svg>