<svg width="19" height="15" viewBox="0 0 19 15" fill="none" xmlns="http://www.w3.org/2000/svg">
                  <path d="M6.16262 14.8125C12.9534 14.8125 16.6687 9.18509 16.6687 4.30646C16.6687 4.14825 16.6652 3.98653 16.6582 3.82833C17.3809 3.30566 18.0046 2.65825 18.5 1.91653C17.8269 2.21601 17.1122 2.4116 16.3804 2.49661C17.151 2.03474 17.7279 1.30917 18.0043 0.454386C17.2794 0.883979 16.4867 1.18702 15.6601 1.35052C15.1031 0.758732 14.3667 0.366898 13.5648 0.235599C12.7628 0.1043 11.9399 0.240849 11.2233 0.624133C10.5067 1.00742 9.93635 1.61609 9.60039 2.35604C9.26442 3.096 9.18157 3.92602 9.36465 4.71778C7.89687 4.64413 6.46095 4.26284 5.14999 3.59863C3.83902 2.93443 2.68227 2.00214 1.75473 0.862199C1.2833 1.67499 1.13904 2.6368 1.35127 3.55213C1.5635 4.46746 2.1163 5.26765 2.8973 5.79005C2.31097 5.77144 1.73748 5.61357 1.22422 5.3295V5.37521C1.22369 6.22817 1.51857 7.055 2.05873 7.71514C2.59889 8.37528 3.35099 8.82798 4.18719 8.9963C3.64404 9.14491 3.07399 9.16656 2.52113 9.05958C2.75709 9.79314 3.21618 10.4347 3.83433 10.8948C4.45248 11.3549 5.19884 11.6105 5.96926 11.626C4.66132 12.6534 3.04563 13.2107 1.38242 13.208C1.08747 13.2076 0.792799 13.1895 0.5 13.1539C2.18964 14.2379 4.15515 14.8136 6.16262 14.8125Z" fill="#278AEB" />
                </svg>