<svg width="126" height="130" viewBox="0 0 126 130" fill="none" xmlns="http://www.w3.org/2000/svg">
<path d="M66.4405 8.30383C66.5772 8.18604 66.6875 8.04067 66.764 7.87728C66.8406 7.71388 66.8818 7.53614 66.8849 7.35571C66.888 7.17528 66.8529 6.99623 66.782 6.83031C66.711 6.66439 66.6058 6.51534 66.4732 6.39293C65.6625 5.64576 64.6445 5.09191 63.6563 4.57356C60.8631 3.11159 58.0497 1.68635 55.216 0.29785C54.9611 0.172698 54.6827 0.0447443 54.4026 0.0961126C54.1224 0.147481 53.5181 0.505191 53.3416 0.722806C51.808 2.60662 52.1442 5.1218 52.3301 7.54078C52.656 11.7754 53.5965 16.2342 56.277 19.645C56.6833 20.1634 57.2456 20.8274 57.9507 20.4053C58.5961 20.0195 58.9641 19.1295 59.2713 18.485C60.1866 16.5685 61.0524 14.6838 62.2768 12.9335C63.4712 11.2266 64.8694 9.67191 66.4405 8.30383Z" fill="#278AEB"/>
<path d="M47.9713 6.70429C47.7994 6.53804 47.6033 6.36339 47.3642 6.35125C47.0448 6.33537 46.7935 6.60809 46.5965 6.85933C43.7362 10.5069 41.6367 14.6911 40.422 19.1644C40.3389 19.4688 40.2613 19.7976 40.3725 20.0927C40.5294 20.514 41.0011 20.712 41.426 20.8558C43.8213 21.6573 46.3082 22.1534 48.8277 22.3324C50.0984 22.4239 51.3737 22.4351 52.6458 22.366C53.5396 22.3175 55.5411 21.7617 56.3182 21.2453C57.5323 20.4364 58.1366 20.6849 57.7854 19.4558C57.2446 17.5542 54.397 14.53 53.2771 12.9236C51.7156 10.6824 49.9385 8.5994 47.9713 6.70429Z" fill="#278AEB"/>
<path d="M71.6222 14.2812C75.2329 20.9124 79.0995 29.2724 81.3112 36.4882C74.2868 40.2092 68.6354 44.3411 62.5319 49.434C62.2928 49.6329 60.0802 48.7961 59.7879 48.6868C59.6768 48.6368 59.5772 48.5643 59.4955 48.4739C55.6744 44.794 52.0428 40.9277 48.6008 36.8749C47.5865 35.6813 45.8783 33.3837 47.3212 31.8791C47.8816 31.2944 48.6671 30.9134 49.2957 30.4062C50.2745 29.617 51.243 28.8185 52.2274 28.0349C56.2055 24.8737 60.2907 21.8539 64.4829 18.9754C66.8322 17.3646 69.2119 15.7999 71.6222 14.2812Z" fill="#F37416"/>
<path d="M46.9934 38.4935C46.6366 38.4935 46.3462 38.3067 46.0856 38.1041C45.4572 37.6147 44.8869 37.0551 44.3858 36.436C43.6928 35.5814 43.2921 34.6942 42.8681 33.7546C42.7355 33.4622 42.5991 33.1596 42.4534 32.8598C42.0649 32.0594 41.9976 30.8228 43.8889 29.4798C52.7084 23.2175 61.7707 17.0384 70.8236 11.1161C70.9777 11.0152 71.2365 10.8462 71.5512 10.8779C71.95 10.9181 72.1872 11.2441 72.3152 11.4187L74.4474 14.3402C74.5885 14.5335 74.821 14.8576 74.7799 15.2545C74.7267 15.729 74.313 16.0017 74.0907 16.1521C64.6531 22.4415 55.9247 29.7347 48.0581 37.9042C47.8508 38.119 47.5052 38.4786 47.0233 38.4926L46.9934 38.4935ZM46.5432 37.5138C46.702 37.6371 46.8683 37.7529 47.0018 37.7464C47.1653 37.7408 47.3474 37.5661 47.5192 37.3868C55.4237 29.1786 64.1941 21.8509 73.6769 15.5319C73.789 15.4572 74.0234 15.3012 74.0374 15.1723C74.0496 15.0649 73.9207 14.8875 73.8441 14.7819L71.71 11.8595C71.5979 11.7054 71.5232 11.626 71.4746 11.6214C71.4261 11.6167 71.2878 11.7036 71.2309 11.7419C62.1835 17.6586 53.1333 23.8321 44.3213 30.0897C43.1455 30.9237 42.7439 31.7465 43.1259 32.5329C43.2762 32.8421 43.4144 33.1494 43.5489 33.4473C43.9524 34.3411 44.3344 35.1864 44.9658 35.969C45.4311 36.5431 45.9603 37.0623 46.5432 37.5166V37.5138Z" fill="#060809"/>
<path d="M56.3695 18.6552C56.2714 18.6552 56.1772 18.6166 56.1073 18.5477C56.0374 18.4789 55.9974 18.3853 55.9959 18.2872C55.9427 15.2238 56.4255 12.7768 57.4706 10.7921C58.8015 8.27036 61.1523 6.56306 63.605 6.33704C63.654 6.33251 63.7035 6.33768 63.7505 6.35226C63.7976 6.36684 63.8413 6.39055 63.8792 6.42203C63.9171 6.45351 63.9485 6.49215 63.9714 6.53574C63.9944 6.57933 64.0086 6.62701 64.0131 6.67607C64.0176 6.72513 64.0125 6.77461 63.9979 6.82167C63.9833 6.86873 63.9596 6.91246 63.9281 6.95036C63.8966 6.98826 63.858 7.01959 63.8144 7.04256C63.7708 7.06552 63.7231 7.07968 63.6741 7.08422C61.4699 7.28782 59.3461 8.84382 58.131 11.1451C57.1466 13.0131 56.6926 15.348 56.7431 18.2788C56.7439 18.3279 56.7351 18.3767 56.7171 18.4225C56.699 18.4682 56.6722 18.5099 56.638 18.5452C56.6038 18.5805 56.563 18.6087 56.5179 18.6282C56.4728 18.6478 56.4242 18.6582 56.3751 18.6589L56.3695 18.6552Z" fill="#060809"/>
<path d="M10.535 45.943C10.4398 45.9432 10.3482 45.9071 10.2787 45.842C10.2093 45.7769 10.1673 45.6878 10.1614 45.5928C9.95497 42.3015 11.5306 38.9037 14.1774 36.9349C14.5847 36.6323 15.1908 36.2456 15.8651 36.2811C15.6223 34.7307 15.8175 33.0122 16.4498 31.2956C17.5127 28.4003 19.5562 26.1494 22.0536 25.1165C24.721 24.0153 27.8629 24.4767 29.8541 26.2241C31.1523 25.0614 32.7037 24.4776 34.1504 24.6158C35.1989 24.7221 36.1643 25.2343 36.8402 26.043C37.0616 24.3142 38.0469 23.2971 39.8196 22.9515C41.454 22.633 42.4506 23.4278 43.3304 24.1283C44.1541 24.7821 44.9331 25.406 46.2257 25.2089C47.2997 25.0455 47.7649 24.302 48.3542 23.3615C49.3685 21.7411 50.6312 19.7256 55.485 19.7256C55.5841 19.7256 55.6791 19.7649 55.7492 19.835C55.8193 19.9051 55.8586 20.0001 55.8586 20.0992C55.8586 20.1983 55.8193 20.2933 55.7492 20.3633C55.6791 20.4334 55.5841 20.4728 55.485 20.4728C51.045 20.4728 49.9522 22.2174 48.9874 23.7575C48.3514 24.7728 47.7508 25.7319 46.3387 25.9477C44.722 26.1933 43.7348 25.4069 42.8634 24.713C41.992 24.019 41.257 23.4325 39.9615 23.6856C38.0936 24.0489 37.352 25.2528 37.5743 27.5719C37.5982 27.7043 37.6131 27.8381 37.6191 27.9725C37.6276 28.0716 37.5963 28.17 37.5322 28.246C37.4681 28.322 37.3764 28.3695 37.2773 28.3779C37.1782 28.3863 37.0799 28.355 37.0038 28.2909C36.9278 28.2268 36.8804 28.1351 36.872 28.036C36.8561 27.9118 36.8421 27.7904 36.8299 27.6709C36.6011 26.4941 35.4365 25.49 34.0757 25.3602C32.8447 25.2425 31.5129 25.7478 30.3771 26.7537C32.3058 28.9457 32.3861 32.4883 30.4939 34.5057C30.2866 34.727 29.9606 35.0371 29.5272 35.1594C29.2926 35.2308 29.0441 35.2433 28.8035 35.1959C28.563 35.1485 28.3378 35.0426 28.1478 34.8876C27.4006 34.3086 27.0326 33.1131 27.0597 32.2342C27.1303 30.1934 27.9298 28.2454 29.3134 26.7434C27.5295 25.2071 24.7248 24.812 22.331 25.8011C20.0241 26.7537 18.1281 28.8477 17.1409 31.5468C16.4918 33.312 16.3359 35.0623 16.674 36.5903C16.8341 36.7228 16.9633 36.8889 17.0522 37.0769C17.1313 37.2343 17.1692 37.4092 17.1625 37.5852C17.1558 37.7612 17.1047 37.9327 17.0139 38.0837C16.9778 38.1418 16.9264 38.1889 16.8653 38.2198C16.8043 38.2507 16.7359 38.2643 16.6677 38.259C16.5995 38.2537 16.534 38.2297 16.4784 38.1897C16.4229 38.1498 16.3794 38.0953 16.3527 38.0323C16.224 37.7196 16.1176 37.3981 16.0342 37.0703C15.9956 37.054 15.9551 37.0427 15.9137 37.0367C15.5588 36.9863 15.1609 37.1413 14.6267 37.5382C12.1788 39.3558 10.7218 42.5004 10.9086 45.5461C10.9147 45.6449 10.8814 45.7421 10.8159 45.8164C10.7504 45.8906 10.6581 45.9359 10.5593 45.9421L10.535 45.943ZM29.8579 27.2758C28.6073 28.6423 27.885 30.41 27.8209 32.2613C27.7966 33.0543 28.1394 33.9313 28.6185 34.3011C28.7151 34.3836 28.831 34.4403 28.9555 34.466C29.0799 34.4916 29.2088 34.4853 29.3302 34.4477C29.5263 34.3898 29.728 34.246 29.9634 33.9948C31.5941 32.2529 31.5203 29.1923 29.8579 27.2758Z" fill="#060809"/>
<path d="M77.295 33.5606C77.2083 33.5605 77.1244 33.5302 77.0577 33.475C76.9909 33.4198 76.9453 33.3431 76.9289 33.258C76.2192 29.608 74.8364 26.1219 72.8512 22.9778C72.7982 22.8941 72.7806 22.7927 72.8023 22.696C72.824 22.5994 72.8833 22.5153 72.967 22.4623C73.0507 22.4092 73.1521 22.3917 73.2487 22.4134C73.3454 22.4351 73.4295 22.4943 73.4825 22.5781C75.5174 25.8014 76.935 29.3752 77.663 33.117C77.6722 33.1652 77.6718 33.2147 77.6619 33.2628C77.6519 33.3108 77.6326 33.3565 77.605 33.3971C77.5774 33.4376 77.5421 33.4724 77.5011 33.4993C77.4601 33.5263 77.4142 33.5449 77.366 33.5541C77.3426 33.5586 77.3188 33.5608 77.295 33.5606Z" fill="#060809"/>
<path d="M74.9789 31.287C74.9025 31.2869 74.8279 31.2634 74.7653 31.2197C74.7027 31.1759 74.655 31.114 74.6286 31.0423L73.4845 27.9453C73.4655 27.8989 73.4561 27.8491 73.4567 27.799C73.4573 27.7488 73.4681 27.6993 73.4883 27.6534C73.5085 27.6075 73.5377 27.5661 73.5742 27.5317C73.6107 27.4974 73.6538 27.4707 73.7008 27.4533C73.7479 27.4359 73.7979 27.4282 73.848 27.4306C73.8981 27.433 73.9472 27.4454 73.9924 27.4672C74.0376 27.489 74.0779 27.5196 74.111 27.5573C74.1441 27.595 74.1693 27.639 74.185 27.6866L75.3272 30.7836C75.3482 30.8402 75.3551 30.901 75.3475 30.9608C75.3399 31.0206 75.3178 31.0777 75.2833 31.1272C75.2488 31.1766 75.2028 31.217 75.1493 31.2449C75.0958 31.2727 75.0364 31.2872 74.9761 31.287H74.9789Z" fill="#060809"/>
<path d="M55.1357 19.0333C55.0897 19.0333 55.0441 19.0247 55.0012 19.0081C51.8799 17.8005 47.9964 16.2996 44.311 17.0141C44.2623 17.0248 44.212 17.0256 44.163 17.0166C44.1141 17.0076 44.0674 16.9888 44.0257 16.9615C43.9841 16.9342 43.9483 16.8988 43.9206 16.8574C43.8928 16.8161 43.8736 16.7696 43.8641 16.7207C43.8545 16.6718 43.8549 16.6215 43.8651 16.5727C43.8753 16.524 43.8951 16.4777 43.9235 16.4368C43.9518 16.3958 43.988 16.3609 44.03 16.3341C44.072 16.3074 44.119 16.2893 44.1681 16.2809C48.0646 15.5225 52.0601 17.0683 55.2702 18.3114C55.3514 18.3428 55.4191 18.4017 55.4616 18.4778C55.504 18.5539 55.5185 18.6425 55.5025 18.7282C55.4866 18.8138 55.4412 18.8912 55.3742 18.9469C55.3072 19.0027 55.2228 19.0332 55.1357 19.0333Z" fill="#060809"/>
<path d="M54.8807 16.4735C54.8162 16.4736 54.7528 16.4569 54.6967 16.4251C54.6406 16.3934 54.5936 16.3476 54.5604 16.2924C52.2255 12.408 52.1087 9.22594 51.9453 4.82228L51.9341 4.52154C51.8687 2.73112 52.1012 1.55806 52.6663 0.831428C53.0221 0.373783 53.6936 0.040356 54.3362 0.00299725C54.8751 -0.0287577 55.3552 0.247697 55.7054 0.4485C56.6011 0.962184 57.6668 1.38247 58.7044 1.79715C59.7626 2.21744 60.8572 2.65173 61.7986 3.1925C61.8846 3.24204 61.9473 3.3237 61.9731 3.41951C61.9988 3.51532 61.9855 3.61743 61.9359 3.70338C61.8864 3.78934 61.8047 3.85209 61.7089 3.87784C61.6131 3.90358 61.511 3.89022 61.425 3.84068C60.5294 3.32699 59.4637 2.90671 58.427 2.49203C57.3679 2.07174 56.2733 1.63744 55.3318 1.09668C54.9704 0.889334 54.6715 0.731493 54.3773 0.749239C53.958 0.773522 53.4751 1.00608 53.2566 1.29001C52.8045 1.87094 52.6215 2.88896 52.6812 4.49446L52.6915 4.79519C52.8484 9.08678 52.9624 12.1876 55.1973 15.9094C55.2314 15.9661 55.2498 16.0307 55.2507 16.0967C55.2516 16.1628 55.2349 16.2279 55.2025 16.2854C55.17 16.343 55.1228 16.3909 55.0658 16.4242C55.0088 16.4576 54.944 16.4753 54.8779 16.4754L54.8807 16.4735Z" fill="#060809"/>
<path d="M64.3737 5.3713C64.3167 5.37124 64.2605 5.35814 64.2093 5.333L63.2109 4.84827C63.1219 4.80468 63.0538 4.72749 63.0217 4.6337C62.9895 4.5399 62.9959 4.43718 63.0395 4.34813C63.0831 4.25908 63.1603 4.191 63.2541 4.15886C63.3479 4.12672 63.4506 4.13315 63.5397 4.17675L64.5381 4.66148C64.6143 4.6984 64.6757 4.76012 64.7123 4.83652C64.7488 4.91293 64.7583 4.99949 64.7392 5.082C64.7201 5.16451 64.6735 5.23808 64.6071 5.29064C64.5407 5.34321 64.4584 5.37165 64.3737 5.3713Z" fill="#060809"/>
<path d="M44.6061 52.6443C41.9522 51.8909 39.1079 52.221 36.6972 53.5624C34.6827 54.6962 33.1164 56.467 31.5903 58.2033L12.9632 79.4006C12.7596 79.6323 12.5457 79.8872 12.5233 80.1945C12.4589 81.0715 13.7608 81.2396 14.6051 80.9958C16.9793 80.3131 19.1498 79.099 21.3904 78.0641C27.9796 75.0343 35.2038 73.5885 41.8126 70.6045C43.6908 69.7565 45.5485 68.7618 46.9821 67.2842C48.8258 65.3874 49.8092 62.8656 50.4938 60.3542C50.7535 59.4025 51.2886 58.1818 50.6956 57.2665C50.0387 56.2763 49.2404 55.3877 48.3261 54.629C47.2359 53.7184 45.9695 53.0427 44.6061 52.6443Z" fill="#278AEB"/>
<path d="M79.291 86.5231C80.6602 88.6124 81.8538 91.0911 81.2991 93.5278C80.8143 95.6536 79.1098 97.2534 77.4698 98.6936C69.4944 105.714 61.1192 112.267 52.3862 118.319C51.88 118.67 51.2411 119.034 50.6845 118.77C49.9373 118.416 50.041 117.333 50.2903 116.546C52.9419 108.176 60.89 100.148 63.0474 91.6366C63.6078 89.4343 61.7642 87.9717 62.9017 86.0057C64.2644 83.653 66.6656 82.1203 69.2191 81.3358C69.8864 81.1369 70.5651 80.9781 71.2514 80.8604C71.7884 80.767 72.3404 80.569 72.8877 80.5503C74.1019 80.5083 75.2787 81.7757 76.0782 82.5481C77.3138 83.7314 78.3561 85.0969 79.291 86.5231Z" fill="#278AEB"/>
<path d="M117.071 15.9382C119.299 14.9668 122.097 14.0926 123.969 15.6402C124.788 16.3164 125.244 17.355 125.407 18.4048C125.854 21.287 124.306 24.0665 122.764 26.5424C112.539 42.9528 100.113 57.8838 85.8316 70.9181C80.1895 76.0652 74.2607 80.9116 69.0015 86.451C66.1062 89.5032 62.9708 92.9887 58.7754 93.3297C55.4057 93.6033 52.2461 91.7176 49.6104 89.6003C45.7382 86.4863 42.4223 82.738 39.8037 78.515C38.0721 75.7206 36.617 72.4442 37.3203 69.2295C37.9068 66.5546 39.8579 64.5372 41.8725 62.815C43.7843 61.175 45.7765 59.6722 47.8004 58.1778C50.4444 56.2165 53.0306 54.1683 55.6737 52.207C58.3169 50.2456 60.9833 48.3217 63.675 46.4294C66.3667 44.5372 69.0949 42.6618 71.8501 40.8368C74.6053 39.0119 77.3549 37.2392 80.1465 35.5011C82.9382 33.763 85.7503 32.0697 88.5952 30.4193C91.4401 28.769 94.3251 27.1505 97.2298 25.5954C100.134 24.0403 103.066 22.5254 106.023 21.0694C108.98 19.6133 111.944 18.2198 114.943 16.8787C115.651 16.5617 116.361 16.2482 117.071 15.9382Z" fill="#FCD9BF"/>
<path d="M120.315 26.3849C120.242 26.3846 120.17 26.3628 120.109 26.3223C117.347 24.4931 115.115 21.969 113.637 19.0037C113.615 18.9598 113.602 18.912 113.598 18.8631C113.595 18.8141 113.601 18.765 113.617 18.7185C113.632 18.6719 113.657 18.6289 113.689 18.5919C113.721 18.5549 113.761 18.5245 113.804 18.5026C113.848 18.4807 113.896 18.4677 113.945 18.4643C113.994 18.4609 114.043 18.4671 114.09 18.4827C114.136 18.4983 114.179 18.5228 114.216 18.555C114.253 18.5872 114.284 18.6264 114.306 18.6703C115.724 21.5184 117.868 23.9427 120.521 25.6993C120.588 25.7436 120.639 25.8083 120.667 25.8839C120.694 25.9595 120.696 26.042 120.673 26.119C120.65 26.196 120.603 26.2635 120.538 26.3114C120.473 26.3593 120.395 26.3851 120.315 26.3849Z" fill="#278AEB"/>
<path d="M70.8741 60.2552C72.4562 61.631 75.1078 61.5292 76.5797 60.0358C78.0516 58.5423 78.1161 55.8908 76.7179 54.3283C75.4645 52.9273 73.0913 52.5873 71.3943 53.3308C69.9214 53.9762 69.4264 55.5116 69.4797 57.02C69.5236 58.2379 69.9354 59.4371 70.8741 60.2552Z" fill="white"/>
<path d="M85.4281 43.6428C84.2046 44.1266 83.4519 45.5472 83.6788 46.8445C83.9058 48.1417 85.048 49.2037 86.35 49.3998C87.6519 49.5959 89.0248 48.9506 89.7599 47.8587C90.6005 46.6082 90.5425 44.7766 89.5124 43.6792C88.4822 42.5818 86.5367 42.4492 85.4571 43.4999L85.4281 43.6428Z" fill="white"/>
<path d="M97.1915 35.2023C96.265 35.7141 95.8531 36.9573 96.2183 37.951C96.5835 38.9447 97.6379 39.6153 98.6961 39.6079C99.7543 39.6004 100.765 38.9541 101.3 38.0444C101.921 36.9834 101.839 35.4592 100.883 34.6821C99.8561 33.8527 98.3085 34.1628 97.1737 34.8343L97.1915 35.2023Z" fill="white"/>
<path d="M108.424 28.6964C108.065 28.7826 107.749 28.993 107.53 29.2904C107.311 29.5878 107.205 29.953 107.23 30.3212C107.254 30.6895 107.409 31.0372 107.665 31.3027C107.921 31.5682 108.263 31.7344 108.631 31.7719C108.962 31.7985 109.295 31.7393 109.597 31.6001C110.46 31.2218 111.085 30.2234 110.818 29.3193C110.551 28.4152 109.23 27.9585 108.582 28.6422L108.424 28.6964Z" fill="white"/>
<path d="M61.4896 62.7153C61.3926 62.7151 61.2995 62.6773 61.2299 62.6097C57.9343 59.4256 55.176 55.7287 53.0624 51.6627C53.0397 51.6191 53.0259 51.5716 53.0217 51.5227C53.0174 51.4738 53.0228 51.4246 53.0376 51.3778C53.0524 51.331 53.0763 51.2876 53.1078 51.25C53.1394 51.2124 53.1781 51.1814 53.2216 51.1588C53.2652 51.1362 53.3127 51.1223 53.3616 51.1181C53.4105 51.1139 53.4597 51.1193 53.5065 51.1341C53.5533 51.1489 53.5967 51.1727 53.6343 51.2043C53.6719 51.2358 53.7029 51.2745 53.7255 51.318C55.8022 55.3124 58.5118 58.9443 61.7492 62.0727C61.8029 62.1244 61.8398 62.191 61.8553 62.2638C61.8709 62.3367 61.8642 62.4126 61.8363 62.4816C61.8084 62.5507 61.7605 62.6099 61.6987 62.6515C61.6369 62.6931 61.5641 62.7154 61.4896 62.7153Z" fill="#278AEB"/>
<path d="M66.5217 68.1144C66.443 68.1146 66.3664 68.0894 66.3032 68.0425C65.1671 67.222 64.1888 66.2028 63.4153 65.0342C63.3882 64.9933 63.3694 64.9474 63.3601 64.8993C63.3507 64.8511 63.3509 64.8016 63.3606 64.7535C63.3704 64.7054 63.3895 64.6597 63.4169 64.619C63.4443 64.5783 63.4795 64.5434 63.5204 64.5163C63.5613 64.4892 63.6071 64.4704 63.6553 64.461C63.7035 64.4516 63.753 64.4518 63.8011 64.4616C63.8492 64.4713 63.8949 64.4904 63.9356 64.5179C63.9763 64.5453 64.0112 64.5805 64.0383 64.6214C64.7625 65.715 65.6782 66.6689 66.7412 67.4373C66.8056 67.4835 66.8536 67.5489 66.8783 67.6242C66.9031 67.6995 66.9032 67.7806 66.8788 67.856C66.8544 67.9314 66.8066 67.997 66.7424 68.0435C66.6782 68.0899 66.6009 68.1148 66.5217 68.1144Z" fill="#278AEB"/>
<path d="M69.432 70.9238C69.3666 70.9245 69.3022 70.9081 69.2452 70.8761C68.8248 70.6375 68.459 70.3136 68.1711 69.9253C68.1123 69.8456 68.0875 69.7457 68.1023 69.6477C68.1171 69.5497 68.1703 69.4616 68.25 69.4028C68.3298 69.344 68.4296 69.3192 68.5276 69.334C68.6256 69.3488 68.7137 69.402 68.7726 69.4817C68.9975 69.7867 69.2839 70.0413 69.6132 70.2289C69.6851 70.2697 69.7415 70.3332 69.7735 70.4095C69.8055 70.4858 69.8112 70.5705 69.7899 70.6504C69.7685 70.7303 69.7212 70.8009 69.6554 70.851C69.5896 70.9012 69.5091 70.9281 69.4264 70.9275L69.432 70.9238Z" fill="#278AEB"/>
<path d="M73.6713 75.6431C73.5863 75.6435 73.5038 75.6144 73.4378 75.5609C72.5517 74.8479 71.7258 74.0632 70.9684 73.2147C70.9357 73.178 70.9106 73.1351 70.8944 73.0886C70.8783 73.0421 70.8715 72.9929 70.8744 72.9437C70.8773 72.8946 70.8899 72.8465 70.9114 72.8022C70.9329 72.758 70.9629 72.7183 70.9997 72.6857C71.0365 72.653 71.0793 72.6278 71.1258 72.6117C71.1723 72.5956 71.2215 72.5888 71.2707 72.5917C71.3198 72.5946 71.3679 72.6072 71.4122 72.6287C71.4564 72.6501 71.4961 72.6801 71.5287 72.7169C72.2589 73.5353 73.0555 74.2919 73.9104 74.979C73.9707 75.0278 74.0144 75.0942 74.0352 75.1689C74.0561 75.2437 74.0532 75.323 74.027 75.3961C74.0007 75.4691 73.9523 75.5321 73.8886 75.5764C73.8248 75.6206 73.7489 75.6439 73.6713 75.6431Z" fill="#278AEB"/>
<path d="M78.7401 79.6994C78.656 79.6995 78.5744 79.6712 78.5084 79.6191L75.4114 77.174C75.3729 77.1433 75.3408 77.1054 75.3169 77.0623C75.2931 77.0192 75.278 76.9719 75.2724 76.923C75.2669 76.8741 75.271 76.8245 75.2846 76.7772C75.2982 76.7299 75.321 76.6857 75.3516 76.6472C75.3823 76.6087 75.4202 76.5766 75.4633 76.5528C75.5064 76.5289 75.5537 76.5138 75.6026 76.5082C75.6515 76.5027 75.7011 76.5068 75.7484 76.5204C75.7957 76.534 75.8399 76.5568 75.8784 76.5875L78.9754 79.0326C79.0364 79.0807 79.0808 79.1466 79.1026 79.2211C79.1244 79.2956 79.1224 79.3751 79.0969 79.4484C79.0714 79.5218 79.0237 79.5854 78.9604 79.6303C78.8972 79.6753 78.8214 79.6995 78.7438 79.6994H78.7401Z" fill="#278AEB"/>
<path d="M33.4499 87.8018C24.9411 91.0979 16.8328 95.3464 9.27969 100.466C8.68102 100.872 8.06553 101.307 7.7237 101.946C7.38186 102.585 7.42389 103.487 8.00389 103.916C8.54465 104.313 9.2909 104.169 9.96055 104.118C10.6302 104.068 11.4652 104.255 11.6361 104.904C11.7678 105.406 11.4185 105.896 11.0916 106.298C7.62407 110.581 4.34958 115.011 1.2681 119.59C0.928137 120.096 0.5807 120.63 0.520926 121.236C0.461152 121.842 0.801117 122.532 1.39512 122.654C1.74629 122.726 2.104 122.592 2.43183 122.447C4.63319 121.472 6.48899 119.878 8.37747 118.385C11.7443 115.723 15.3093 113.322 19.0415 111.202C19.6262 110.87 20.3893 110.549 20.9226 110.961L19.6393 115.238C19.3974 116.044 19.2517 117.121 19.9792 117.545C20.5742 117.892 21.3186 117.517 21.8855 117.127C23.811 115.803 25.5489 114.225 27.0522 112.436C26.4591 113.294 27.4445 114.526 28.4868 114.552C29.5291 114.577 30.4285 113.86 31.1953 113.151C35.4766 109.192 38.8436 104.309 41.4362 99.0851C42.3954 97.1527 43.2668 95.1157 43.391 92.962C43.5031 91.0258 42.8026 89.3933 41.6753 87.8616C40.6751 86.5026 38.4242 86.554 36.9429 86.7912C35.7446 86.9855 34.58 87.3656 33.4499 87.8018Z" fill="#F37416"/>
<path d="M16.914 107.428C16.3966 107.428 15.8997 107.225 15.7933 106.731C15.7279 106.423 15.868 106.15 15.9436 106.003C17.0644 103.819 18.9501 102.174 20.8218 100.72C24.2431 98.0656 27.9339 95.7776 31.8333 93.894C32.5916 93.5279 33.6022 93.0954 34.7071 92.9983C35.614 92.918 36.4265 93.1449 36.9365 93.6194C37.1268 93.7981 37.2763 94.0158 37.3748 94.2575C37.4733 94.4993 37.5184 94.7595 37.5071 95.0203C37.4866 96.3419 36.7973 97.9035 35.4589 99.6612C34.0253 101.546 32.1041 103.031 30.4155 104.238C29.6973 104.75 28.9211 105.25 28.0049 105.25H28.0003C27.6981 105.245 27.401 105.172 27.1308 105.037C26.8605 104.902 26.624 104.708 26.4387 104.469C26.2862 104.271 26.1881 104.036 26.1538 103.788C24.6146 103.956 23.2314 104.733 21.7725 105.553C20.3389 106.359 18.8558 107.192 17.184 107.414C17.0944 107.425 17.0042 107.429 16.914 107.428ZM32.162 94.5674C28.3096 96.4276 24.6633 98.6875 21.2831 101.31C19.4806 102.711 17.6659 104.29 16.6133 106.344C16.567 106.414 16.5382 106.495 16.5292 106.578C16.5395 106.628 16.7609 106.713 17.0896 106.672C18.6195 106.468 20.0391 105.67 21.412 104.897C23.0063 104 24.6557 103.074 26.5489 103.009C26.6081 103.006 26.6671 103.018 26.7209 103.043C26.7747 103.068 26.8218 103.105 26.8583 103.152C26.8948 103.199 26.9197 103.253 26.9308 103.312C26.942 103.37 26.9391 103.43 26.9225 103.487C26.9 103.579 26.8996 103.675 26.9214 103.767C26.9431 103.859 26.9864 103.945 27.0476 104.017C27.162 104.162 27.3064 104.28 27.4708 104.364C27.6352 104.448 27.8158 104.495 28.0003 104.503C28.6942 104.503 29.3573 104.071 29.9765 103.63C31.6203 102.458 33.4864 101.015 34.8603 99.212C35.712 98.0912 36.7282 96.4549 36.7553 95.0091C36.7651 94.8532 36.7404 94.697 36.6829 94.5517C36.6255 94.4064 36.5366 94.2756 36.4228 94.1686C36.0725 93.8435 35.4543 93.6848 34.7678 93.7455C34.0001 93.8127 33.1941 94.0668 32.1527 94.5702L32.162 94.5674Z" fill="white"/>
<path d="M2.3273 129.953C2.25356 129.953 2.1815 129.931 2.12021 129.89C2.05892 129.849 2.01114 129.791 1.98287 129.723C1.95461 129.655 1.94714 129.58 1.96139 129.508C1.97565 129.435 2.011 129.369 2.06298 129.316C5.67169 125.7 9.51894 122.331 13.5788 119.23C13.6578 119.172 13.7561 119.148 13.8528 119.162C13.9496 119.176 14.0369 119.227 14.0962 119.305C14.1554 119.382 14.1819 119.48 14.1699 119.577C14.1578 119.674 14.1083 119.763 14.0318 119.824C10 122.904 6.17957 126.252 2.59628 129.844C2.56101 129.879 2.51903 129.907 2.47284 129.926C2.42664 129.945 2.37715 129.954 2.3273 129.953Z" fill="#060809"/>
<path d="M12.0723 126.003C12.0039 126.003 11.9369 125.984 11.8785 125.948C11.82 125.913 11.7725 125.862 11.741 125.801C11.7095 125.741 11.6952 125.672 11.6998 125.604C11.7044 125.536 11.7276 125.47 11.7669 125.414C12.5638 124.279 13.5151 123.261 14.5931 122.388C14.6708 122.334 14.766 122.312 14.8596 122.325C14.9532 122.339 15.0382 122.387 15.0975 122.461C15.1567 122.535 15.1858 122.628 15.1789 122.723C15.1719 122.817 15.1295 122.905 15.0601 122.969C14.0359 123.798 13.1321 124.766 12.3749 125.844C12.3408 125.893 12.2955 125.932 12.2428 125.96C12.1902 125.988 12.1318 126.002 12.0723 126.003Z" fill="#060809"/>
<path d="M23.2827 124.342C23.2123 124.342 23.1432 124.322 23.0836 124.285C23.0239 124.248 22.976 124.194 22.9454 124.131C22.9149 124.067 22.9029 123.996 22.9108 123.926C22.9188 123.856 22.9464 123.79 22.9904 123.735C24.0125 122.458 25.1249 121.256 26.3191 120.138C26.3915 120.071 26.4879 120.035 26.5869 120.038C26.686 120.041 26.7796 120.084 26.8472 120.157C26.9149 120.229 26.9509 120.325 26.9475 120.424C26.9441 120.523 26.9015 120.617 26.829 120.685C25.6599 121.777 24.5708 122.953 23.5704 124.202C23.5358 124.245 23.4921 124.28 23.4423 124.304C23.3926 124.329 23.3381 124.342 23.2827 124.342Z" fill="#060809"/>
<path d="M1.78641 111.154C1.71009 111.155 1.63529 111.132 1.57206 111.09C1.50883 111.047 1.46021 110.986 1.43274 110.914C1.40528 110.843 1.40028 110.765 1.41843 110.691C1.43657 110.617 1.47699 110.55 1.53424 110.5C2.37416 109.732 3.26298 109.02 4.19511 108.368C4.27636 108.311 4.37681 108.289 4.47438 108.306C4.57194 108.323 4.65861 108.379 4.71534 108.46C4.77206 108.541 4.79419 108.642 4.77685 108.739C4.75951 108.837 4.70412 108.924 4.62287 108.98C3.71616 109.615 2.85195 110.308 2.03578 111.056C1.96798 111.118 1.87892 111.153 1.78641 111.154Z" fill="#060809"/>
<path d="M36.9279 56.4847C35.2522 57.8322 33.7629 59.3963 32.499 61.1359C32.1946 61.5562 31.8891 62.0418 31.9648 62.5546C33.179 62.2912 34.0989 61.3479 35.0469 60.5531C37.0989 58.8426 39.5543 57.6852 42.1796 57.1908C42.5018 57.1301 42.8334 57.0759 43.1136 56.8947C44.2287 56.1588 42.5756 55.1632 41.9172 54.84C40.9692 54.3805 39.7018 54.8026 38.8229 55.2351C38.1472 55.5807 37.5117 55.9998 36.9279 56.4847Z" fill="white"/>
<path d="M73.7899 99.0129C73.7136 99.014 73.6388 98.9916 73.5756 98.9489C73.5124 98.9061 73.4638 98.845 73.4363 98.7738C73.4088 98.7026 73.4038 98.6247 73.422 98.5506C73.4401 98.4764 73.4805 98.4096 73.5378 98.3591C74.7772 97.2225 76.0595 96.0466 76.957 94.613C77.9256 93.0645 78.2739 91.3675 77.9134 89.9572C77.8887 89.8612 77.903 89.7593 77.9534 89.6739C78.0037 89.5885 78.086 89.5266 78.1819 89.5018C78.2779 89.4771 78.3798 89.4915 78.4652 89.5418C78.5506 89.5922 78.6125 89.6744 78.6372 89.7704C79.0482 91.3787 78.6671 93.2877 77.5903 95.009C76.6395 96.5286 75.3189 97.739 74.0412 98.9093C73.9734 98.9741 73.8837 99.0111 73.7899 99.0129Z" fill="#060809"/>
<path d="M66.8748 105.624C66.8019 105.624 66.7307 105.603 66.6697 105.563C66.6087 105.523 66.5607 105.466 66.5317 105.399C66.5026 105.332 66.4937 105.259 66.506 105.187C66.5184 105.115 66.5514 105.048 66.6011 104.995L68.2263 103.255C68.288 103.19 68.3713 103.149 68.4609 103.14C68.5504 103.131 68.6402 103.154 68.7138 103.206C68.7873 103.258 68.8396 103.335 68.861 103.422C68.8825 103.51 68.8717 103.602 68.8305 103.682L68.3495 104.609C68.327 104.653 68.296 104.692 68.2584 104.723C68.2208 104.755 68.1774 104.779 68.1305 104.794C68.0837 104.809 68.0343 104.814 67.9854 104.81C67.9364 104.806 67.8888 104.792 67.8452 104.769H67.8387L67.1475 105.509C67.1123 105.546 67.0699 105.575 67.023 105.594C66.9761 105.614 66.9257 105.624 66.8748 105.624Z" fill="#060809"/>
<path d="M119.014 22.4723C118.915 22.4724 118.82 22.4334 118.75 22.364C117.52 21.1437 116.448 19.7738 115.559 18.2863C115.508 18.2012 115.493 18.0994 115.517 18.0033C115.542 17.9073 115.603 17.8248 115.688 17.774C115.773 17.7232 115.875 17.7083 115.971 17.7326C116.067 17.7568 116.15 17.8182 116.201 17.9033C117.058 19.337 118.091 20.6574 119.277 21.8335C119.33 21.8856 119.365 21.9522 119.38 22.0248C119.395 22.0974 119.388 22.1727 119.359 22.2411C119.331 22.3096 119.283 22.3681 119.222 22.4093C119.16 22.4504 119.088 22.4724 119.014 22.4723Z" fill="#278AEB"/>
<path d="M60.9973 76.3184C61.1925 76.5986 61.3923 76.8993 61.4381 77.2402C61.5044 77.724 61.2513 78.191 60.9711 78.5889C59.9139 80.0748 58.3971 81.1536 56.9065 82.2005C51.4633 86.0167 45.9641 89.7536 40.4443 93.4595C37.974 95.1183 35.4289 96.8032 32.5317 97.485C32.8652 95.8197 33.9327 94.4029 34.9853 93.0785C40.6442 85.9682 47.0111 79.4332 53.8515 73.4464C54.8788 72.5433 56.15 71.515 57.6163 71.9259C58.7417 72.2416 58.8304 73.1214 59.4058 73.9891C59.9204 74.7736 60.4658 75.5423 60.9973 76.3184Z" fill="#278AEB"/>
</svg>
