<?xml version="1.0" standalone="no"?>
<!DOCTYPE svg PUBLIC "-//W3C//DTD SVG 20010904//EN"
 "http://www.w3.org/TR/2001/REC-SVG-20010904/DTD/svg10.dtd">
<svg version="1.0" xmlns="http://www.w3.org/2000/svg"
 width="16.000000pt" height="16.000000pt" viewBox="0 0 16.000000 16.000000"
 preserveAspectRatio="xMidYMid meet">
<metadata>
Created by potrace 1.11, written by Peter Selinger 2001-2013
</metadata>
<g transform="translate(0.000000,16.000000) scale(0.004061,-0.004061)"
fill="#000000" stroke="none">
<path d="M0 1970 l0 -1970 1970 0 1970 0 0 1970 0 1970 -1970 0 -1970 0 0
-1970z m1867 1114 c-3 -3 -12 -4 -19 -1 -8 3 -5 6 6 6 11 1 17 -2 13 -5z m61
-1 c-10 -2 -26 -2 -35 0 -10 3 -2 5 17 5 19 0 27 -2 18 -5z m-108 -13 c13 -9
13 -10 0 -10 -13 0 -13 -2 -1 -9 10 -6 -1 -8 -30 -4 -57 7 -63 13 -13 13 29 0
35 3 24 10 -8 5 -10 10 -5 10 6 0 17 -5 25 -10z m187 4 c-3 -3 -12 -4 -19 -1
-8 3 -5 6 6 6 11 1 17 -2 13 -5z m-30 -22 c6 -4 -15 -7 -47 -7 -32 -1 -56 3
-54 7 6 10 85 10 101 0z m66 -9 c-7 -2 -19 -2 -25 0 -7 3 -2 5 12 5 14 0 19
-2 13 -5z m-412 -53 c5 0 15 12 21 28 9 21 12 23 15 10 5 -20 27 -22 144 -19
45 2 69 -2 75 -10 5 -9 2 -10 -12 -5 -15 6 -16 4 -7 -5 7 -7 19 -9 30 -4 10 5
21 9 25 9 3 1 10 4 14 9 13 13 86 8 82 -5 -7 -19 17 -38 45 -38 16 0 26 -7 30
-20 4 -15 14 -20 40 -20 20 0 37 -4 39 -10 3 -8 29 -16 63 -19 6 -1 3 -6 -5
-11 -13 -9 -13 -10 0 -10 13 0 13 -1 0 -10 -13 -8 -12 -10 3 -10 9 0 17 5 17
10 0 6 8 10 18 11 15 0 14 1 -3 8 -15 6 -12 9 20 14 48 8 54 3 26 -20 -22 -18
-20 -18 60 -14 70 3 81 1 76 -12 -8 -22 15 -49 36 -41 17 6 17 8 -4 30 -21 23
-21 23 -1 21 11 0 19 -4 16 -8 -2 -4 4 -13 13 -20 15 -12 16 -12 10 6 -7 19
-7 19 8 1 8 -10 12 -23 9 -28 -8 -13 17 -40 33 -34 18 7 44 -4 37 -15 -3 -5
-10 -7 -15 -4 -5 3 -6 -1 -2 -10 4 -13 8 -14 14 -4 4 8 10 11 13 9 2 -3 -22
-34 -54 -70 l-58 -64 -57 49 c-31 28 -78 65 -104 84 -25 19 -47 38 -49 43 -2
4 -12 8 -23 8 -10 0 -19 4 -19 8 0 4 -10 8 -21 9 -12 1 -32 12 -45 24 -12 11
-26 19 -31 16 -12 -7 -145 28 -136 36 3 4 -1 7 -10 7 -9 0 -17 -5 -17 -10 0
-7 -6 -8 -15 -3 -8 5 -65 5 -126 0 -110 -8 -262 -48 -316 -83 -12 -7 -28 -12
-35 -11 -7 2 -9 2 -5 -1 5 -2 -15 -20 -45 -40 -77 -51 -198 -179 -253 -266
-79 -127 -133 -275 -151 -413 l-7 -53 367 0 367 0 -3 -102 -3 -103 -87 0 c-49
0 -254 2 -458 3 l-370 2 0 103 c0 219 72 475 182 652 63 99 212 269 249 283 5
2 21 16 37 30 16 15 42 34 58 42 16 8 40 23 53 33 17 12 28 14 35 7 15 -15 26
-12 19 6 -5 14 -3 15 15 5 11 -6 29 -11 39 -10 13 0 12 3 -7 10 -24 10 -24 11
-6 25 11 8 24 14 30 14 5 0 1 -7 -10 -15 -10 -8 -14 -15 -7 -15 6 0 19 -3 27
-6 12 -5 15 -2 9 12 -5 13 -3 16 10 11 13 -5 17 -1 18 16 0 20 2 19 11 -5 5
-16 14 -28 19 -28z m654 -11 c15 -14 -7 -10 -35 7 l-25 15 25 -7 c14 -3 29
-10 35 -15z m-105 -5 c0 -8 -4 -12 -10 -9 -5 3 -10 10 -10 16 0 5 5 9 10 9 6
0 10 -7 10 -16z m63 -1 c3 -5 -9 -9 -26 -10 -24 -2 -28 0 -17 7 18 12 37 13
43 3z m110 -56 c-7 -11 -23 12 -23 33 1 12 4 11 15 -4 8 -10 12 -23 8 -29z
m74 -3 c-7 -7 -37 7 -37 17 0 6 9 5 21 -1 11 -7 19 -14 16 -16z m44 -27 c13
-10 19 -17 13 -17 -6 0 -14 3 -18 7 -3 4 -16 8 -27 10 -12 2 -28 7 -37 12 -12
7 -8 8 15 7 16 -2 41 -10 54 -19z m9 -68 c0 -14 -17 -10 -23 5 -4 10 -1 13 9
9 7 -3 14 -9 14 -14z m90 -29 c0 -5 -2 -10 -4 -10 -3 0 -8 5 -11 10 -3 6 -1
10 4 10 6 0 11 -4 11 -10z m-575 -280 c78 -29 134 -75 168 -138 59 -108 55
-216 -11 -344 -2 -5 172 -8 386 -8 l389 0 7 -48 c8 -63 -9 -262 -29 -343 -63
-252 -178 -455 -346 -613 -126 -119 -299 -215 -445 -247 -33 -7 -66 -14 -74
-16 -8 -3 -60 -7 -116 -10 -245 -13 -512 92 -709 281 -31 30 -55 60 -53 65 1
5 29 39 61 75 l58 66 67 -58 c131 -115 232 -169 381 -202 114 -25 212 -25 325
-1 340 75 616 381 680 756 7 44 11 83 9 88 -2 4 -202 7 -444 7 l-439 0 0 100
0 100 28 0 c35 0 86 31 109 67 26 40 25 142 -3 180 -32 44 -80 63 -156 63
l-68 0 0 -105 0 -105 -95 0 -95 0 0 211 0 212 178 -5 c152 -5 186 -9 237 -28z"/>
<path d="M1988 2953 c7 -3 16 -2 19 1 4 3 -2 6 -13 5 -11 0 -14 -3 -6 -6z"/>
<path d="M2005 2930 c-3 -5 -2 -10 4 -10 5 0 13 5 16 10 3 6 2 10 -4 10 -5 0
-13 -4 -16 -10z"/>
<path d="M1375 2917 c-13 -10 -15 -16 -6 -21 7 -5 15 -5 18 -2 4 3 0 6 -8 7
-8 0 0 7 16 14 17 8 23 14 14 15 -8 0 -23 -6 -34 -13z"/>
<path d="M1840 2926 c0 -2 7 -7 16 -10 8 -3 12 -2 9 4 -6 10 -25 14 -25 6z"/>
<path d="M1965 2920 c-3 -5 1 -10 9 -10 9 0 16 5 16 10 0 6 -4 10 -9 10 -6 0
-13 -4 -16 -10z"/>
<path d="M1888 2903 c7 -3 16 -2 19 1 4 3 -2 6 -13 5 -11 0 -14 -3 -6 -6z"/>
<path d="M2118 2873 c7 -3 16 -2 19 1 4 3 -2 6 -13 5 -11 0 -14 -3 -6 -6z"/>
<path d="M2208 2833 c7 -3 16 -2 19 1 4 3 -2 6 -13 5 -11 0 -14 -3 -6 -6z"/>
<path d="M2270 2830 c0 -5 5 -10 10 -10 6 0 10 5 10 10 0 6 -4 10 -10 10 -5 0
-10 -4 -10 -10z"/>
<path d="M2330 2786 c0 -2 9 -6 20 -9 11 -3 18 -1 14 4 -5 9 -34 13 -34 5z"/>
<path d="M2536 2733 c-6 -14 -5 -15 5 -6 7 7 10 15 7 18 -3 3 -9 -2 -12 -12z"/>
<path d="M2433 2705 c0 -8 4 -12 9 -9 5 3 6 10 3 15 -9 13 -12 11 -12 -6z"/>
</g>
</svg>
