<svg width="12" height="10" fill="none" xmlns="http://www.w3.org/2000/svg"><path d="M0 0h11.429v10H0z"/><path d="M.408 1.837H11.02a.408.408 0 0 0 .409-.408V.409A.408.408 0 0 0 11.02 0H.408A.408.408 0 0 0 0 .408v1.02c0 .226.183.409.408.409zm0 4.081H11.02a.408.408 0 0 0 .409-.408V4.49a.408.408 0 0 0-.409-.408H.408A.408.408 0 0 0 0 4.49v1.02c0 .226.183.408.408.408zm0 4.082H11.02a.408.408 0 0 0 .409-.408v-1.02a.408.408 0 0 0-.409-.409H.408A.408.408 0 0 0 0 8.571v1.02c0 .226.183.409.408.409z" fill="#fff"/></svg>