<svg width="21" height="20" fill="none" xmlns="http://www.w3.org/2000/svg"><path d="M20.003 15.784a.967.967 0 0 1-.296.847l-2.818 2.797a1.586 1.586 0 0 1-.498.36 2.057 2.057 0 0 1-.603.19c-.015 0-.057.004-.128.011a2.86 2.86 0 0 1-.275.011c-.268 0-.703-.046-1.303-.138-.6-.092-1.335-.318-2.203-.678-.87-.36-1.854-.9-2.956-1.62-1.102-.72-2.274-1.71-3.517-2.967-.989-.974-1.808-1.906-2.458-2.796-.65-.89-1.172-1.713-1.567-2.468A13.416 13.416 0 0 1 .49 7.278a10.904 10.904 0 0 1-.403-1.59C.018 5.245-.01 4.895.004 4.64c.014-.254.02-.396.02-.424a2.06 2.06 0 0 1 .191-.604c.1-.205.22-.37.36-.498L3.394.297A.933.933 0 0 1 4.071 0a.79.79 0 0 1 .488.159c.14.106.26.236.36.392l2.267 4.3c.127.227.162.474.106.742a1.32 1.32 0 0 1-.36.678L5.892 7.31a.353.353 0 0 0-.074.138.523.523 0 0 0-.032.159c.057.297.184.636.382 1.017.17.339.43.752.784 1.24.353.487.854 1.048 1.504 1.684.635.65 1.2 1.154 1.695 1.514.494.36.907.625 1.24.795.331.17.585.272.762.307l.265.053c.028 0 .074-.01.137-.032a.353.353 0 0 0 .138-.074l1.208-1.229c.254-.226.55-.339.89-.339.24 0 .43.043.572.127h.02l4.09 2.416c.296.183.473.416.53.699z" fill="#EB5757"/></svg>