<svg width="15" height="21" fill="none" xmlns="http://www.w3.org/2000/svg"><path d="M14.125 5.227c-.075-.28-.226-.579-.339-.84C12.443 1.157 9.506 0 7.136 0 3.962 0 .466 2.128 0 6.514v.897c0 .037.013.373.031.541.262 2.09 1.911 4.312 3.143 6.403 1.326 2.24 2.7 4.443 4.063 6.645.84-1.437 1.678-2.893 2.499-4.293.224-.411.483-.822.707-1.214.15-.261.435-.522.565-.765 1.326-2.427 3.459-4.872 3.459-7.28v-.99c0-.26-.324-1.175-.342-1.231zM7.194 9.725c-.933 0-1.954-.466-2.458-1.754-.075-.205-.07-.616-.07-.654v-.579c0-1.642 1.395-2.389 2.608-2.389 1.494 0 2.649 1.195 2.649 2.689 0 1.493-1.236 2.687-2.73 2.687z" fill="#FC11C8"/></svg>