<svg width="879" height="301" fill="none" xmlns="http://www.w3.org/2000/svg"><rect width="124.348" height="125.39" rx="6" transform="translate(188.663)" fill="#F2F2F2"/><path fill="#4F4F4F" d="M193.185 4.56h113.14v114.082h-113.14z"/><rect width="124.348" height="125.39" rx="6" transform="translate(188.663 175.61)" fill="#F2F2F2"/><path fill="#4F4F4F" d="M193.185 180.169h113.14v114.082h-113.14z"/><rect width="124.348" height="125.39" rx="6" transform="translate(377.326)" fill="#F2F2F2"/><path fill="#4F4F4F" d="M381.848 4.56h113.14v114.082h-113.14z"/><rect width="124.348" height="125.39" rx="6" transform="translate(377.326 175.61)" fill="#F2F2F2"/><path fill="#4F4F4F" d="M381.848 180.169h113.14v114.082h-113.14z"/><rect width="124.348" height="125.39" rx="6" transform="translate(565.989)" fill="#F2F2F2"/><path fill="#4F4F4F" d="M570.511 4.56h113.14v114.082h-113.14z"/><rect width="124.348" height="125.39" rx="6" transform="translate(565.989 175.61)" fill="#F2F2F2"/><path fill="#4F4F4F" d="M570.511 180.169h113.14v114.082h-113.14z"/><rect width="124.348" height="125.39" rx="6" transform="translate(754.652)" fill="#F2F2F2"/><path fill="#4F4F4F" d="M759.174 4.56h113.14v114.082h-113.14z"/><rect width="124.348" height="125.39" rx="6" transform="translate(754.652 175.61)" fill="#F2F2F2"/><path fill="#4F4F4F" d="M759.174 180.169h113.14v114.082h-113.14z"/><rect width="124.348" height="125.39" rx="6" fill="#F2F2F2"/><path fill="#4F4F4F" d="M4.522 4.56h113.14v114.082H4.522z"/><rect width="124.348" height="125.39" rx="6" transform="translate(0 175.61)" fill="#F2F2F2"/><path fill="#4F4F4F" d="M4.522 180.169h113.14v114.082H4.522z"/><path d="M31.652 88.982v-4.891l6.627-1.549 18.426-50.217 8.081-.407 17.94 50.624 6.709 1.549v4.891H65.998v-4.891l7.516-1.549-3.07-9.049H49.43l-3.151 9.049 7.596 1.549v4.891H31.652zM60.1 42.434l-8.486 24.538h16.648L60.1 42.434zM261.444 84.09v4.892h-24.648v-4.891l8.081-1.63V38.438h-10.506l-2.02 8.152h-5.253V31.917h44.044v14.674h-5.253l-2.02-8.152h-10.506V82.46l8.081 1.63zm198.043-45.65v27.309c0 7.989-1.67 13.994-5.01 18.016-3.34 4.021-8.97 6.032-16.89 6.032s-13.524-1.847-16.81-5.543c-3.287-3.75-4.93-9.51-4.93-17.283V38.44l-6.869-1.63v-4.484l23.032-.408v4.892l-7.677 1.63v28.532c0 5.979 1.023 10.136 3.07 12.473 2.048 2.283 5.523 3.424 10.426 3.424 4.902 0 8.324-1.25 10.263-3.75 1.94-2.554 2.91-7.01 2.91-13.37V38.44l-7.678-1.63v-4.484l23.032-.407v4.89l-6.87 1.631zm180.581 50.542v-4.891l7.678-1.63V41.7l-2.425 6.114-12.526 25.68-6.465.407-12.526-26.494-2.02-5.707v40.76l7.677 1.63v4.892h-21.82v-4.891l6.87-1.63V38.438l-6.87-1.63v-4.484l18.183-.408 14.628 32.609 15.273-32.2 16.971-.408v4.89l-6.869 1.631V82.46l6.87 1.63v4.891h-22.628zm146.236 0v-4.891l6.627-1.549 18.425-50.217 8.082-.407 17.94 50.624 6.708 1.549v4.891H820.65v-4.891l7.516-1.549-3.071-9.049h-21.012l-3.152 9.049 7.597 1.549v4.891h-22.224zm28.447-46.548l-8.486 24.538h16.648l-8.162-24.538zM39.866 265.628L26.37 215.085l-6.304-1.63v-4.484l22.628-.408v4.891l-7.03 1.63 8.647 36.93 13.334-43.043 7.677-.408 13.092 44.347 10.021-37.825-7.354-1.63v-4.484l21.82-.408v4.891l-6.384 1.63-14.224 50.544h-8.89l-12.04-46.304-2.506 9.212-10.91 37.092h-8.081zm222.223-51.579h-17.375v17.527H263.3v6.521h-18.587v19.973H263.3l1.616-8.152h5.253v14.674H229.36V259.7l6.87-1.63v-44.021l-6.87-1.63v-4.484l15.355-.408h24.648v13.859h-5.253l-2.02-7.337zm148.241 50.405v-4.892l6.627-1.548 18.425-50.217 8.082-.408 17.94 50.625 6.708 1.548v4.892h-23.436v-4.892l7.516-1.548-3.071-9.05h-21.012l-3.152 9.05 7.597 1.548v4.892H410.33zm28.447-46.549l-8.486 24.538h16.648l-8.162-24.538zm166.974 47.228v-4.892l6.87-1.63V214.59l-6.87-1.63v-4.484l15.355-.408h8.89c5.71 0 10.155 1.304 13.334 3.913 3.232 2.609 4.848 6.196 4.848 10.76 0 7.99-3.501 13.289-10.505 15.897 1.293 1.142 2.909 3.587 4.848 7.337l6.385 12.962 5.738 1.304v4.892H642.52l-6.869-15.082c-1.885-4.076-3.529-6.712-4.93-7.907-1.346-1.25-3.34-1.875-5.98-1.875h-3.636v18.342l6.869 1.63v4.892H605.75zm15.355-50.543v19.565h6.06c3.934 0 7.005-.897 9.214-2.69 2.208-1.794 3.313-4.158 3.313-7.093 0-2.989-.943-5.353-2.829-7.092-1.885-1.794-4.31-2.69-7.273-2.69h-8.485zm181.801 33.288l1.616 8.56c.97.543 2.29 1.032 3.96 1.467 1.67.38 3.314.57 4.93.57 1.616 0 3.179-.19 4.687-.57 1.509-.435 2.829-1.032 3.96-1.793 1.132-.761 2.02-1.658 2.667-2.69.7-1.087 1.05-2.31 1.05-3.669 0-1.576-.43-2.88-1.292-3.913-.862-1.087-1.994-2.01-3.395-2.772-1.346-.815-2.882-1.521-4.606-2.12a313.123 313.123 0 0 1-5.253-1.874 275.274 275.274 0 0 1-5.495-2.446 23.453 23.453 0 0 1-4.688-3.098c-1.346-1.25-2.424-2.744-3.232-4.483-.808-1.74-1.212-3.886-1.212-6.44 0-2.718.511-5.082 1.535-7.093 1.078-2.01 2.478-3.668 4.202-4.973 1.778-1.304 3.826-2.255 6.142-2.853 2.37-.652 4.85-.978 7.435-.978 1.186 0 2.452.082 3.799.245 1.346.163 2.666.38 3.96.652 1.292.217 2.505.489 3.636.815 1.132.272 2.101.516 2.91.734l2.585.815-.404 13.858h-5.253l-2.747-8.722a27.263 27.263 0 0 0-4.526-1.06 30.592 30.592 0 0 0-4.525-.326c-1.563 0-2.99.217-4.284.652-1.239.38-2.316.924-3.232 1.63-.862.707-1.536 1.495-2.02 2.365-.485.87-.728 1.766-.728 2.69.054 2.282.808 4.076 2.263 5.38 1.455 1.304 3.26 2.419 5.415 3.342a85.268 85.268 0 0 0 6.95 2.61c2.532.814 4.848 1.847 6.95 3.097 2.155 1.196 3.933 2.772 5.333 4.728 1.455 1.957 2.182 4.51 2.182 7.663 0 2.826-.538 5.326-1.616 7.5a16.399 16.399 0 0 1-4.445 5.543c-1.885 1.468-4.121 2.61-6.707 3.424-2.586.761-5.361 1.142-8.324 1.142-1.185 0-2.479-.082-3.88-.245a52.103 52.103 0 0 1-4.04-.652 53.822 53.822 0 0 1-3.637-.734 46.836 46.836 0 0 1-2.828-.896l-2.263-.816v-14.266h6.465z" fill="#F2F2F2"/></svg>