<svg width="134" height="45" fill="none" xmlns="http://www.w3.org/2000/svg"><path fill="#333" d="M28.976 0h17.377v17.434H28.974zm0 26.837h17.377v17.434H28.974zM57.951 0h17.377v17.434H57.951zm0 26.837h17.377v17.434H57.951zM86.927 0h17.377v17.434H86.927zm0 26.837h17.377v17.434H86.927zM115.902 0h17.377v17.434h-17.377zm0 26.837h17.377v17.434h-17.377zM0 0h17.377v17.434H0zm0 26.837h17.377v17.434H0z"/><path d="M4.167 12.902v-.748l1.018-.236 2.83-7.675 1.24-.062 2.756 7.737 1.03.236v.748h-3.6v-.748l1.155-.236-.472-1.383H6.897l-.484 1.383 1.167.236v.748H4.167zm4.369-7.114l-1.304 3.75H9.79l-1.253-3.75zm30.923 6.366v.748h-3.786v-.748l1.242-.249V5.178H35.3l-.31 1.245h-.807V4.181h6.764v2.242h-.806l-.31-1.245h-1.614v6.727l1.241.25zm30.416-6.976V9.35c0 1.221-.256 2.139-.77 2.753-.512.615-1.377.922-2.593.922-1.217 0-2.077-.282-2.582-.847-.505-.573-.757-1.453-.757-2.641v-4.36l-1.055-.25v-.685l3.537-.062v.747l-1.179.25v4.36c0 .914.157 1.549.472 1.906.314.349.848.523 1.6.523.754 0 1.28-.19 1.577-.573.298-.39.447-1.071.447-2.043V5.178l-1.18-.25v-.685l3.538-.062v.747l-1.055.25zm27.735 7.724v-.748l1.179-.249v-6.23l-.373.935-1.923 3.925-.993.062-1.924-4.049-.31-.872v6.23l1.179.248v.748h-3.352v-.748l1.055-.249V5.178l-1.055-.25v-.685l2.793-.062 2.247 4.983 2.345-4.92 2.607-.063v.747l-1.055.25v6.727l1.055.25v.747H97.61zm22.459 0v-.748l1.018-.236 2.83-7.675 1.24-.062 2.756 7.737 1.03.236v.748h-3.599v-.748l1.154-.236-.471-1.383H122.8l-.484 1.383 1.166.236v.748h-3.413zm4.369-7.114l-1.303 3.75h2.557l-1.254-3.75zM5.428 39.898l-2.072-7.725-.969-.249v-.685l3.476-.062v.747l-1.08.25 1.328 5.643 2.048-6.578 1.179-.062 2.01 6.777 1.54-5.78-1.13-.25v-.685l3.351-.062v.747l-.98.25-2.185 7.724H10.58L8.73 32.82l-.384 1.408-1.676 5.669H5.43zm34.13-7.883h-2.669v2.679h2.855v.996H36.89v3.052h2.855l.248-1.245h.807v2.242h-6.268v-.747l1.055-.25v-6.727l-1.055-.25v-.684l2.358-.063h3.786v2.118h-.807l-.31-1.121zm22.767 7.703v-.747l1.018-.237 2.83-7.675 1.241-.062 2.756 7.737 1.03.237v.747h-3.6v-.747l1.155-.237-.472-1.383h-3.227l-.484 1.383 1.167.237v.747h-3.414zm4.37-7.114l-1.304 3.75h2.557l-1.254-3.75zm25.644 7.218v-.748l1.055-.249v-6.727l-1.055-.25v-.685l2.358-.062h1.366c.877 0 1.56.2 2.047.598.497.399.745.947.745 1.644 0 1.221-.538 2.031-1.613 2.43.198.174.446.548.744 1.121l.98 1.981.882.2v.747h-1.862l-1.055-2.305c-.29-.623-.542-1.026-.757-1.208-.207-.191-.513-.287-.918-.287h-.559v2.803l1.055.25v.747H92.34zm2.358-7.724v2.99h.931c.604 0 1.076-.137 1.415-.411.34-.275.509-.636.509-1.084 0-.457-.145-.818-.434-1.084-.29-.274-.662-.411-1.118-.411h-1.303zm27.922 5.087l.248 1.308c.15.083.352.158.608.224.257.058.51.087.757.087.249 0 .489-.029.72-.087.232-.066.435-.158.609-.274.173-.116.31-.253.41-.411a1.01 1.01 0 0 0 .16-.56.905.905 0 0 0-.198-.599 1.67 1.67 0 0 0-.521-.423 3.72 3.72 0 0 0-.708-.324 48.377 48.377 0 0 1-.807-.287c-.29-.124-.57-.249-.844-.373a3.603 3.603 0 0 1-.72-.474 2.173 2.173 0 0 1-.496-.685c-.124-.266-.186-.594-.186-.984 0-.416.078-.777.236-1.084.165-.307.38-.56.645-.76.273-.2.588-.345.943-.436.364-.1.745-.15 1.142-.15.182 0 .377.013.584.038.206.025.41.058.608.1.198.033.385.074.558.124.174.042.323.079.447.112l.397.125-.062 2.118h-.807l-.422-1.333a4.205 4.205 0 0 0-.695-.162 4.722 4.722 0 0 0-.695-.05c-.24 0-.459.033-.657.1a1.55 1.55 0 0 0-.497.249 1.267 1.267 0 0 0-.31.36.83.83 0 0 0-.112.412c.008.349.124.623.348.822.223.2.5.37.831.511.331.141.687.274 1.068.399.388.124.744.282 1.067.473.331.183.604.424.82.723.223.299.334.69.334 1.17 0 .433-.082.815-.248 1.147a2.509 2.509 0 0 1-.683.847c-.29.224-.633.399-1.03.523a4.53 4.53 0 0 1-1.278.175c-.182 0-.38-.013-.596-.038a8.032 8.032 0 0 1-.62-.1 8.301 8.301 0 0 1-.56-.111 7.215 7.215 0 0 1-.433-.137l-.348-.125v-2.18h.993z" fill="#F2F2F2"/></svg>