<svg width="20" height="18" fill="none" xmlns="http://www.w3.org/2000/svg"><path d="M19.904.09a.319.319 0 0 0-.339-.068L.204 7.542a.32.32 0 0 0-.042.575l4.013 2.26 1.393 6.807a.319.319 0 0 0 .541.167l3.02-3.028a.32.32 0 1 0-.451-.45L6.305 16.25l.513-4.39 7.246 3.977a.319.319 0 0 0 .43-.12l.006-.011a.333.333 0 0 0 .02-.047L19.98.427a.32.32 0 0 0-.077-.336zM1.064 7.893l15.825-6.146L4.447 9.798 1.064 7.892zm5.292 3.212a.318.318 0 0 0-.118.219l-.443 3.791-.98-4.794L15.56 3.366l-9.205 7.738zm7.687 3.994l-6.925-3.8 11.864-9.974-4.939 13.774z" fill="#fff"/></svg>