<svg width="307" height="100" viewBox="0 0 307 100" fill="none" xmlns="http://www.w3.org/2000/svg"><path d="M0 0h306.075v100H0z"/><path d="M93.86 2.564v2.564H0V0h93.86v2.564zm135.916 0v2.564h-93.859V0h93.859v2.564zm-135.917 9.23v2.565H0V9.231h93.86v2.564zm135.917 0v2.565h-93.859V9.231h93.859v2.564zM79.498 21.539v2.564H47.187v-5.128H79.5v2.564zm88.731 0v2.564h-32.312v-5.128h32.312v2.564zm-88.73 9.231v2.564H47.186v-5.128H79.5v2.564zm88.73 0v2.564h-32.312v-5.128h32.312v2.564zm-88.73 9.744v2.564H47.186V37.95H79.5v2.564zm166.69-2.051c0 .256-.821.512-1.795.512h-1.795v5.385c0 3.23-.205 5.384-.513 5.384-.308 0-.513-2.153-.513-5.384v-5.385h-2.052c-1.128 0-2.051-.256-2.051-.512 0-.308 1.795-.513 4.359-.513 2.565 0 4.36.205 4.36.513zm3.59 2.05v2.565h5.641v-2.256c0-1.282.258-2.462.514-2.616.307-.205.514 1.795.514 5.641s-.207 5.846-.514 5.641c-.256-.154-.514-1.436-.514-2.872v-2.513h-5.641v2.821c0 1.538-.205 2.82-.513 2.82-.307 0-.513-2.307-.513-5.897 0-3.59.206-5.897.513-5.897.308 0 .513 1.128.513 2.564zm17.439-2.05c0 .307-1.436.512-3.334.512h-3.335v4.103h3.079c1.691 0 3.076.205 3.076.513 0 .307-1.385.512-3.076.512h-3.079v4.616h3.335c1.898 0 3.334.205 3.334.513 0 .307-1.641.512-3.846.512h-3.848V37.95h3.848c2.205 0 3.846.205 3.846.513zm-37.442 2.564v2.564h-93.859V38.46h93.859v2.565zm0 8.717v2.565h-93.859V47.18h93.859v2.564zm-150.278.514v2.564H47.187v-5.129H79.5v2.565zm0 9.743v2.564H47.187v-5.128H79.5V60zm150.278 0v2.564h-32.312v-5.128h32.312V60zm12.412 6.77l.154 4.769 3.231.153c2.36.103 3.18.36 3.18.872 0 .616-.871.77-4.103.77h-4.103v-5.642c0-4.615.154-5.64.769-5.64.565 0 .77.974.872 4.717zm14.26-3.847c.562.513 1.025 1.18 1.025 1.538 0 .36.256.667.512.667.309 0 .514 1.129.514 2.564 0 1.385-.205 2.565-.514 2.565-.256 0-.512.256-.512.615 0 1.025-1.643 2.461-2.924 2.461-2 0-4.257-2.974-4.257-5.64 0-2.565 2.103-5.54 3.949-5.59.668-.052 1.643.358 2.207.82zm10.256 0c1.385 1.18 1.385 4.257 0 5.436-.562.462-1.026 1.077-1.026 1.282 0 .256.464.872 1.026 1.385 1.078.974 1.385 2.307.514 2.307-.309 0-1.385-.923-2.514-2.051-1.076-1.128-2.256-2.051-2.565-2.051-.306 0-.564.872-.564 2.051 0 1.487-.205 2.051-.767 2.051-.618 0-.77-.974-.77-5.64V62.05h2.82c1.899 0 3.129.257 3.846.872zm9.438.718c1.025 1.23 1.334 2.102 1.334 4.051 0 1.949-.309 2.82-1.334 4.052-1.129 1.384-1.641 1.59-3.846 1.59h-2.514V62.051h2.514c2.205 0 2.717.205 3.846 1.589zm8.002.41c0 1.59-.207 2.103-1.078 2.36-.565.204-1.18.204-1.334.05-.205-.153-.051-.307.258-.307.357 0 .615-.36.615-.77 0-.41-.205-.769-.514-.769-.256 0-.511-.564-.511-1.282 0-1.025.255-1.282 1.281-1.282 1.129 0 1.283.206 1.283 2zm11.795-.974c.565.564 1.026 1.23 1.026 1.538 0 .77-1.332.616-2.051-.256-1.129-1.333-4.615-.564-4.615 1.026 0 .871 1.64 1.794 3.126 1.794 3.183 0 4.669 2.975 2.514 5.129-1.435 1.435-4.461 1.384-6-.103-.668-.615-1.179-1.282-1.179-1.538 0-.718 1.435-.462 2.255.41 1.026.974 3.334.77 4.053-.359.717-1.18-.668-2.513-2.615-2.513-1.744 0-3.693-1.487-3.693-2.872 0-2.871 4.974-4.461 7.179-2.256zm-216.44 6.666v2.565H47.186V67.18H79.5v2.563zm150.277 0v2.565h-32.312V67.18h32.312v2.563zm-150.278 9.23v2.564H47.187V76.41H79.5v2.564zm150.278 0v2.564h-32.312V76.41h32.312v2.564zm-106.169 9.231v2.564h-76.42v-5.128h76.42v2.564zm106.169 0v2.564h-93.859v-5.128h93.859v2.564zm18.977 0c0 .257-.82.513-1.795.513h-1.795v5.385c0 3.23-.205 5.384-.513 5.384-.307 0-.513-2.154-.513-5.384v-5.385h-2.051c-1.129 0-2.052-.257-2.052-.513 0-.308 1.795-.513 4.36-.513 2.564 0 4.359.205 4.359.513zm8.515 2.872c.616 1.64 1.59 4.256 2.205 5.692.616 1.641.821 2.718.512 2.718-.307 0-.666-.461-.82-1.025-.256-.872-.717-1.026-3.487-1.026-2.821 0-3.334.154-3.591 1.025-.256.872-1.282 1.488-1.282.77 0-1.077 4.36-11.539 4.77-11.385.309.103 1.025 1.539 1.693 3.23zm12.514-2.872c0 .308-1.435.513-3.334.513h-3.334v4.102h2.564c1.436 0 2.565.206 2.565.513 0 .257-1.129.513-2.565.513h-2.564v2.82c0 1.54-.205 2.821-.511 2.821-.309 0-.514-2.307-.514-5.897v-5.898h3.845c2.208 0 3.848.205 3.848.513zm9.745 0c0 .308-1.436.513-3.335.513h-3.334v4.102h2.565c1.438 0 2.564.206 2.564.513 0 .257-1.126.513-2.564.513h-2.565v2.82c0 1.54-.205 2.821-.511 2.821-.309 0-.514-2.307-.514-5.897v-5.898h3.848c2.205 0 3.846.205 3.846.513zm4.103 5.436c0 3.795-.205 5.795-.514 5.59-.974-.564-.615-11.539.36-11.539.104 0 .154 2.667.154 5.949zm7.59-1.23l3.18 4.717v-4.41c0-2.462.258-4.615.514-4.77.309-.204.514 1.796.514 5.642 0 3.64-.205 5.846-.463 5.64-.307-.153-1.897-2.307-3.59-4.769l-3.129-4.41v4.718c0 2.82-.205 4.718-.512 4.718-.309 0-.514-2.307-.514-5.897 0-3.231.155-5.898.41-5.898.205.052 1.795 2.154 3.59 4.718zm13.491-3.744c.666.564 1.076 1.128.871 1.333-.205.205-.719 0-1.179-.462-2.206-2.205-5.385.206-5.385 4.052 0 2.461 1.539 4.871 3.076 4.871 1.848 0 2.564-.615 2.564-2.102 0-1.128-.255-1.487-1.025-1.487-.565 0-1.025-.257-1.025-.513 0-.308.82-.513 1.795-.513 1.845 0 1.845 0 1.486 1.898-.307 1.948-1.795 3.743-3.076 3.743-1.489 0-3.284-1.23-4.053-2.82-.973-2.103-.973-3.898-.051-6.103 1.23-2.872 3.795-3.692 6.002-1.897zm-181.104 8.769V100h-76.42v-5.128h76.42v2.564zm106.169 0V100h-93.859v-5.128h93.859v2.564z" fill="#fff"/></svg>