<svg width="1162" height="401" fill="none" xmlns="http://www.w3.org/2000/svg"><path d="M370.745 10.128v10.128H0V0h370.745v10.128zm0 36.462v10.128H0V36.462h370.745V46.59zm-56.726 38.487v10.128H186.386V74.949h127.633v10.128zm0 36.461v10.129H186.386V111.41h127.633v10.128zm0 38.488v10.128H186.386v-20.257h127.633v10.129zm688.431-8.103c0 1.013-3.245 2.026-7.094 2.026h-7.091v21.269c0 12.761-.81 21.269-2.026 21.269-1.215 0-2.026-8.508-2.026-21.269v-21.269h-8.104c-4.457 0-8.103-1.013-8.103-2.026 0-1.215 7.09-2.026 17.22-2.026 10.13 0 17.224.811 17.224 2.026zm14.18 8.103v10.128h22.28v-8.913c0-5.064 1.02-9.723 2.03-10.331 1.21-.81 2.03 7.09 2.03 22.282 0 15.193-.82 23.093-2.03 22.282-1.01-.607-2.03-5.671-2.03-11.343v-9.926h-22.28v11.141c0 6.077-.81 11.141-2.03 11.141-1.21 0-2.02-9.115-2.02-23.295 0-14.179.81-23.295 2.02-23.295 1.22 0 2.03 4.457 2.03 10.129zm68.88-8.103c0 1.215-5.67 2.026-13.17 2.026h-13.17v16.205h12.16c6.68 0 12.15.81 12.15 2.025 0 1.216-5.47 2.026-12.15 2.026h-12.16v18.231h13.17c7.5 0 13.17.81 13.17 2.026 0 1.215-6.48 2.025-15.19 2.025h-15.2v-46.59h15.2c8.71 0 15.19.811 15.19 2.026zm-771.491 46.59v10.128H186.386v-20.256h127.633v10.128zm0 38.487v10.128H186.386v-20.256h127.633V237zm0 38.487v10.128H186.386v-20.256h127.633v10.128zm0 36.462v10.128H186.386V301.82h127.633v10.129zm174.23 36.461v10.128H186.386v-20.256h301.863v10.128zm0 36.462V395H186.386v-20.256h301.863v10.128zM934.373 283.54h20.77V289h-27.269v-48.005h6.499v42.545zm69.823-18.526c0 3.596-.57 6.901-1.709 9.916-1.139 2.993-2.747 5.572-4.824 7.738-2.077 2.167-4.578 3.853-7.504 5.059-2.903 1.184-6.119 1.775-9.648 1.775-3.528 0-6.744-.591-9.648-1.775-2.903-1.206-5.393-2.892-7.47-5.059-2.077-2.166-3.685-4.745-4.824-7.738-1.14-3.015-1.709-6.32-1.709-9.916s.57-6.89 1.709-9.883c1.139-3.015 2.747-5.605 4.824-7.772 2.077-2.188 4.567-3.886 7.47-5.092 2.904-1.206 6.12-1.809 9.648-1.809 3.53 0 6.745.603 9.648 1.81 2.926 1.205 5.427 2.903 7.504 5.091 2.077 2.167 3.685 4.757 4.824 7.772 1.14 2.993 1.709 6.287 1.709 9.883zm-6.667 0c0-2.948-.402-5.595-1.206-7.94-.804-2.345-1.943-4.321-3.417-5.929-1.474-1.63-3.26-2.881-5.36-3.752-2.099-.871-4.444-1.307-7.035-1.307-2.568 0-4.902.436-7.001 1.307-2.1.871-3.897 2.122-5.394 3.752-1.474 1.608-2.613 3.584-3.417 5.93-.804 2.344-1.206 4.991-1.206 7.939 0 2.948.402 5.594 1.206 7.94.804 2.322 1.943 4.299 3.417 5.929 1.497 1.608 3.295 2.847 5.394 3.718 2.1.85 4.433 1.273 7.001 1.273 2.591 0 4.936-.424 7.035-1.273 2.1-.87 3.886-2.11 5.36-3.718 1.474-1.63 2.613-3.607 3.417-5.93.804-2.345 1.206-4.991 1.206-7.939zm22.67 3.953V289h-6.466v-48.006h13.568c3.037 0 5.661.313 7.872.938 2.211.603 4.032 1.486 5.461 2.647 1.452 1.161 2.524 2.568 3.216 4.221.692 1.63 1.038 3.462 1.038 5.494 0 1.697-.268 3.283-.804 4.757a12.589 12.589 0 0 1-2.345 3.986c-1.005 1.162-2.244 2.156-3.718 2.982-1.452.826-3.104 1.452-4.958 1.876.804.469 1.519 1.15 2.144 2.043L1049.21 289h-5.762c-1.184 0-2.055-.458-2.613-1.374l-12.462-17.152c-.38-.536-.793-.915-1.24-1.139-.446-.245-1.116-.368-2.01-.368h-4.924zm0-4.724h6.8c1.899 0 3.563-.223 4.992-.67 1.452-.469 2.658-1.116 3.618-1.943a8.12 8.12 0 0 0 2.211-3.015c.491-1.16.737-2.445.737-3.852 0-2.859-.949-5.014-2.848-6.466-1.876-1.451-4.678-2.177-8.408-2.177h-7.102v18.123zm77.59.771c0 3.596-.57 6.867-1.709 9.815-1.139 2.948-2.747 5.472-4.824 7.571-2.077 2.1-4.567 3.73-7.47 4.891-2.904 1.14-6.12 1.709-9.648 1.709h-17.956v-48.006h17.956c3.528 0 6.744.581 9.648 1.742 2.903 1.14 5.393 2.77 7.47 4.891 2.077 2.1 3.685 4.623 4.824 7.571 1.139 2.948 1.709 6.22 1.709 9.816zm-6.667 0c0-2.948-.402-5.583-1.206-7.906-.804-2.323-1.943-4.288-3.417-5.896-1.474-1.608-3.261-2.836-5.36-3.685-2.099-.849-4.433-1.273-7.001-1.273h-11.424v37.486h11.424c2.568 0 4.902-.424 7.001-1.273 2.099-.848 3.886-2.065 5.36-3.651 1.474-1.608 2.613-3.573 3.417-5.896.804-2.323 1.206-4.958 1.206-7.906zm17.185-26.532c.648 1.072 1.117 2.144 1.407 3.216a12.27 12.27 0 0 1 .436 3.216c0 2.032-.503 3.975-1.508 5.829-.983 1.831-2.356 3.517-4.12 5.058l-1.843-1.139a.956.956 0 0 1-.368-.368 1.255 1.255 0 0 1-.067-.402c0-.313.111-.58.335-.804a16.89 16.89 0 0 0 1.038-1.374c.335-.513.637-1.038.905-1.574.268-.558.48-1.139.636-1.742a7.6 7.6 0 0 0 .235-1.91c0-.714-.112-1.451-.335-2.21-.201-.76-.559-1.564-1.072-2.413a1.359 1.359 0 0 1-.235-.737c0-.536.302-.926.905-1.172l3.651-1.474zm35.538 10.016c-.201.335-.413.592-.637.771-.223.156-.513.234-.871.234-.379 0-.826-.19-1.34-.569-.491-.38-1.128-.793-1.909-1.24-.76-.469-1.686-.893-2.781-1.273-1.072-.38-2.378-.569-3.919-.569-1.452 0-2.736.201-3.853.603-1.116.38-2.054.904-2.814 1.574a6.59 6.59 0 0 0-1.675 2.379c-.379.893-.569 1.865-.569 2.914 0 1.34.324 2.457.971 3.35.67.871 1.541 1.62 2.613 2.245a21.599 21.599 0 0 0 3.685 1.641c1.385.447 2.792.916 4.221 1.407a43.605 43.605 0 0 1 4.221 1.675 14.094 14.094 0 0 1 3.685 2.312 10.296 10.296 0 0 1 2.613 3.45c.67 1.363 1.005 3.038 1.005 5.025 0 2.1-.357 4.076-1.072 5.93a13.54 13.54 0 0 1-3.149 4.79c-1.362 1.363-3.048 2.435-5.058 3.216-1.988.782-4.255 1.173-6.801 1.173-3.104 0-5.94-.558-8.509-1.675-2.546-1.139-4.723-2.669-6.532-4.59l1.876-3.082c.178-.245.391-.446.636-.603.268-.178.559-.268.871-.268.469 0 1.005.257 1.608.771a31.407 31.407 0 0 0 2.245 1.641c.915.603 2.01 1.162 3.283 1.675 1.295.492 2.87.737 4.723.737 1.541 0 2.915-.212 4.121-.636 1.206-.424 2.222-1.016 3.048-1.776a7.816 7.816 0 0 0 1.943-2.78c.447-1.072.67-2.267.67-3.585 0-1.451-.335-2.635-1.005-3.55-.647-.939-1.507-1.72-2.579-2.346-1.072-.625-2.301-1.15-3.685-1.574-1.363-.447-2.77-.893-4.221-1.34a48.056 48.056 0 0 1-4.221-1.608 13.797 13.797 0 0 1-3.652-2.345c-1.072-.96-1.943-2.155-2.613-3.585-.647-1.451-.971-3.238-.971-5.36 0-1.697.324-3.338.971-4.924a12.92 12.92 0 0 1 2.881-4.221c1.251-1.228 2.792-2.211 4.623-2.948 1.854-.737 3.976-1.106 6.365-1.106 2.68 0 5.126.425 7.337 1.273 2.211.85 4.143 2.077 5.795 3.685l-1.574 3.082zM662.191 12.421v12.421H422V0h240.191v12.421zm0 44.718V69.56H422V44.718h240.191v12.421zm23.816 47.201v12.421H558.38V91.919h127.627v12.421zm19.999 44.717v12.421H578.379v-24.843h127.627v12.422zm19.999 47.201v12.421H598.378v-24.842h127.627v12.421zm19.999 47.201v12.421H618.377v-24.842h127.627v12.421zm19.999 47.201v12.422H638.376v-24.843h127.627v12.421zM836 337.862v12.421H658.375V325.44H836v12.422zm-29.999 44.717V395H678.374v-24.843h127.627v12.422z" fill="#fff"/><path d="M1004.061 53.859c1.906-3.301 1.125-7.32-1.745-8.977s-6.741-.324-8.647 2.977l-173.061 299.75c-1.906 3.302-1.125 7.321 1.745 8.978s6.741.324 8.647-2.977l173.061-299.751z" fill="#F51010"/><path d="M900.957 351.994a2.647 2.647 0 0 1 0 5.293h-15.402a5 5 0 0 0-5 5v5.946a5 5 0 0 0 5 5h11.114a2.546 2.546 0 0 1 0 5.092h-11.114a5 5 0 0 0-5 5v6.382a5 5 0 0 0 5 5h15.402a2.647 2.647 0 0 1 0 5.293h-21.934a5 5 0 0 1-5-5v-38.006a5 5 0 0 1 5-5h21.934zm15.347 0c.58 0 1.005.078 1.273.234.29.135.614.425.971.872l26.781 34.847c.288.374.91.13.89-.342a40.155 40.155 0 0 1-.033-1.608v-31.155a2.847 2.847 0 1 1 5.695 0v41.875a3.283 3.283 0 0 1-3.283 3.283c-.514 0-.95-.09-1.306-.268-.336-.18-.67-.48-1.006-.905l-26.769-34.842c-.295-.385-.922-.147-.902.337.023.536.034 1.027.034 1.474v31.356a2.848 2.848 0 0 1-5.695 0v-41.808c0-1.85 1.5-3.35 3.35-3.35zm77.258 0a2.73 2.73 0 1 1 0 5.46h-7.78a5 5 0 0 0-5 5v34.296a3.25 3.25 0 0 1-6.5 0v-34.295a5 5 0 0 0-5-5h-7.847a2.73 2.73 0 1 1 0-5.461h32.127zm28.216 42.846c1.988 0 3.763-.334 5.327-1.004 1.563-.67 2.881-1.608 3.953-2.814 1.094-1.206 1.92-2.647 2.479-4.322.58-1.675.871-3.518.871-5.528v-25.945a3.233 3.233 0 1 1 6.465 0v25.946c0 2.769-.446 5.337-1.34 7.705-.871 2.367-2.133 4.422-3.785 6.164-1.631 1.72-3.629 3.07-5.997 4.053-2.367.983-5.025 1.474-7.973 1.474-2.948 0-5.605-.491-7.973-1.474-2.367-.983-4.377-2.334-6.03-4.054-1.652-1.742-2.925-3.796-3.819-6.164-.871-2.367-1.306-4.935-1.306-7.705v-25.945a3.233 3.233 0 1 1 6.465 0v25.912c0 2.01.279 3.853.838 5.527.58 1.675 1.407 3.116 2.479 4.322 1.094 1.206 2.423 2.155 3.986 2.848 1.586.67 3.373 1.005 5.36 1.005zm42.342-14.873a4.924 4.924 0 0 0-4.924 4.924v11.876a3.233 3.233 0 0 1-6.466 0v-39.773a5 5 0 0 1 5-5h8.568c3.037 0 5.661.313 7.872.938 2.211.603 4.031 1.485 5.461 2.647 1.451 1.16 2.523 2.568 3.216 4.22.692 1.63 1.038 3.462 1.038 5.495 0 1.697-.268 3.283-.804 4.757a12.589 12.589 0 0 1-2.345 3.986c-1.005 1.161-2.244 2.155-3.718 2.982a16.45 16.45 0 0 1-2.106 1.002c-.996.392-1.322 2.04-.708 2.917l10.591 14.418c1.415 1.926.04 4.643-2.35 4.643-1.184 0-2.055-.457-2.613-1.373l-12.462-17.152c-.38-.536-.793-.916-1.24-1.139-.446-.246-1.116-.369-2.01-.369zm-4.924-9.724a5 5 0 0 0 5 5h1.8c1.899 0 3.562-.223 4.992-.67 1.451-.469 2.657-1.117 3.618-1.943a8.142 8.142 0 0 0 2.211-3.015c.491-1.161.737-2.445.737-3.852 0-2.86-.949-5.014-2.848-6.466-1.876-1.452-4.679-2.178-8.408-2.178h-2.102a5 5 0 0 0-5 5v8.124zm62.918-18.249a2.647 2.647 0 1 1 0 5.293h-15.401a5 5 0 0 0-5 5v5.946a5 5 0 0 0 5 5h11.113a2.546 2.546 0 0 1 0 5.092h-11.113a5 5 0 0 0-5 5v6.382a5 5 0 0 0 5 5h15.401a2.647 2.647 0 1 1 0 5.293h-21.934a5 5 0 0 1-5-5v-38.006a5 5 0 0 1 5-5h21.934zm36.579 7.504c-.201.335-.413.592-.637.77-.223.157-.513.235-.871.235-.38 0-.826-.19-1.34-.57-.491-.38-1.127-.792-1.91-1.239-.758-.469-1.685-.893-2.78-1.273-1.072-.38-2.378-.57-3.92-.57-1.451 0-2.735.202-3.852.604-1.116.38-2.054.904-2.814 1.574a6.576 6.576 0 0 0-1.674 2.379c-.38.893-.57 1.864-.57 2.914 0 1.34.324 2.457.972 3.35.67.871 1.54 1.62 2.612 2.245a21.599 21.599 0 0 0 3.685 1.641c1.385.447 2.792.916 4.22 1.407a43.726 43.726 0 0 1 4.223 1.675 14.127 14.127 0 0 1 3.685 2.312c1.094.938 1.965 2.088 2.613 3.45.67 1.362 1.005 3.037 1.005 5.025 0 2.1-.358 4.076-1.073 5.93a13.551 13.551 0 0 1-3.148 4.79c-1.363 1.362-3.05 2.434-5.06 3.216-1.987.782-4.254 1.173-6.8 1.173-3.104 0-5.94-.559-8.51-1.675a21.09 21.09 0 0 1-3.828-2.208c-1.722-1.256-1.935-3.643-.827-5.464.179-.246.39-.447.637-.603.268-.179.558-.268.87-.268.47 0 1.006.257 1.609.77a31.594 31.594 0 0 0 2.244 1.642c.916.603 2.01 1.161 3.283 1.675 1.295.491 2.87.737 4.723.737 1.54 0 2.915-.212 4.12-.637 1.207-.424 2.223-1.016 3.049-1.775a7.831 7.831 0 0 0 1.944-2.78c.446-1.073.669-2.267.669-3.585 0-1.452-.335-2.635-1.005-3.551-.647-.938-1.507-1.72-2.58-2.345-1.071-.625-2.3-1.15-3.684-1.575a240.02 240.02 0 0 0-4.221-1.34 48.298 48.298 0 0 1-4.221-1.608 13.813 13.813 0 0 1-3.652-2.345c-1.072-.96-1.943-2.155-2.613-3.584-.647-1.452-.971-3.238-.971-5.36 0-1.697.324-3.339.97-4.925a12.92 12.92 0 0 1 2.882-4.22c1.25-1.229 2.792-2.212 4.624-2.949 1.853-.737 3.975-1.105 6.365-1.105 2.68 0 5.125.424 7.336 1.273 1.097.421 2.125.936 3.085 1.543 1.738 1.102 2.072 3.392 1.136 5.224z" fill="#fff"/></svg>