<svg width="21" height="20" viewBox="0 0 21 20" fill="none" xmlns="http://www.w3.org/2000/svg">
<path d="M20.0035 15.7839C20.0459 16.1088 19.9469 16.3912 19.7069 16.6313L16.8891 19.4278C16.762 19.5691 16.596 19.6892 16.3912 19.788C16.1864 19.8869 15.9852 19.9505 15.7875 19.9787C15.7734 19.9787 15.7309 19.9823 15.6603 19.9894C15.5898 19.9964 15.498 20 15.385 20C15.1165 20 14.6822 19.9541 14.0819 19.8623C13.4816 19.7704 12.7472 19.5444 11.8786 19.1843C11.0098 18.8241 10.0247 18.2838 8.92304 17.5635C7.82138 16.8433 6.64903 15.8545 5.4061 14.5974C4.4174 13.6229 3.59819 12.6907 2.94848 11.8009C2.29876 10.911 1.77616 10.0883 1.38068 9.33261C0.985168 8.57696 0.688558 7.89194 0.490818 7.27753C0.293079 6.66312 0.158898 6.13346 0.0882767 5.68855C0.0176553 5.24363 -0.0105932 4.89406 0.00353107 4.63982C0.0176553 4.38559 0.0247175 4.24434 0.0247175 4.21609C0.052966 4.01835 0.116525 3.81708 0.215395 3.61228C0.314265 3.40748 0.434321 3.24152 0.575564 3.1144L3.39336 0.29661C3.5911 0.0988699 3.81708 -2.22849e-10 4.07132 -2.22849e-10C4.25494 -2.22849e-10 4.41737 0.052966 4.55861 0.158898C4.69985 0.26483 4.81991 0.39548 4.91878 0.550847L7.18572 4.85169C7.31284 5.07767 7.34815 5.32485 7.29165 5.59321C7.23516 5.86157 7.1151 6.08756 6.93148 6.27118L5.89335 7.30931C5.8651 7.33756 5.84038 7.38346 5.8192 7.44702C5.79801 7.51058 5.78742 7.56355 5.78742 7.60592C5.84392 7.90253 5.97103 8.24151 6.16877 8.62287C6.33827 8.96185 6.59956 9.37498 6.95267 9.86227C7.30578 10.3496 7.80719 10.911 8.45691 11.5466C9.0925 12.1963 9.65747 12.7012 10.1518 13.0615C10.6461 13.4215 11.0593 13.6864 11.3913 13.8559C11.7232 14.0254 11.9774 14.1278 12.1539 14.163L12.4187 14.216C12.4469 14.216 12.4929 14.2054 12.5564 14.1842C12.62 14.163 12.6659 14.1383 12.6942 14.11L13.9018 12.8812C14.1562 12.6553 14.4526 12.5423 14.7916 12.5423C15.0318 12.5423 15.2224 12.5846 15.3636 12.6694H15.3848L19.4737 15.0847C19.7704 15.2684 19.947 15.5014 20.0035 15.7839Z" fill="#EB5757"/>
</svg>
