<svg width="15" height="21" viewBox="0 0 15 21" fill="none" xmlns="http://www.w3.org/2000/svg">
<path d="M14.125 5.2267C14.0503 4.94654 13.8985 4.64803 13.7862 4.38668C12.4425 1.15733 9.5064 0 7.13568 0C3.96205 0 0.466663 2.12806 -5.96001e-08 6.51449V7.41066C-5.96001e-08 7.44806 0.0128896 7.78402 0.0311987 7.95208C0.2928 10.0425 1.94233 12.2642 3.17427 14.3547C4.49966 16.5944 5.87494 18.7977 7.23748 21C8.07765 19.5628 8.91479 18.1067 9.73583 16.7067C9.95959 16.2959 10.2193 15.8853 10.4433 15.4931C10.5926 15.232 10.8779 14.9709 11.0082 14.7279C12.3335 12.3014 14.4668 9.85613 14.4668 7.44801V6.45873C14.4669 6.19767 14.1433 5.28299 14.125 5.2267ZM7.19378 9.72547C6.2609 9.72547 5.23978 9.25901 4.73577 7.97077C4.66068 7.76571 4.66673 7.35476 4.66673 7.31711V6.73845C4.66673 5.09619 6.06116 4.34937 7.27425 4.34937C8.76769 4.34937 9.92272 5.5442 9.92272 7.03764C9.92272 8.53103 8.68722 9.72547 7.19378 9.72547Z" fill="#FC11C8"/>
</svg>
