<svg width="879" height="301" viewBox="0 0 879 301" fill="none" xmlns="http://www.w3.org/2000/svg">
<rect width="124.348" height="125.39" rx="6" transform="translate(188.663)" fill="#F2F2F2"/>
<rect width="113.14" height="114.082" transform="translate(193.185 4.55969)" fill="#4F4F4F"/>
<rect width="124.348" height="125.39" rx="6" transform="translate(188.663 175.61)" fill="#F2F2F2"/>
<rect width="113.14" height="114.082" transform="translate(193.185 180.169)" fill="#4F4F4F"/>
<rect width="124.348" height="125.39" rx="6" transform="translate(377.326)" fill="#F2F2F2"/>
<rect width="113.14" height="114.082" transform="translate(381.848 4.55969)" fill="#4F4F4F"/>
<rect width="124.348" height="125.39" rx="6" transform="translate(377.326 175.61)" fill="#F2F2F2"/>
<rect width="113.14" height="114.082" transform="translate(381.848 180.169)" fill="#4F4F4F"/>
<rect width="124.348" height="125.39" rx="6" transform="translate(565.989)" fill="#F2F2F2"/>
<rect width="113.14" height="114.082" transform="translate(570.511 4.55969)" fill="#4F4F4F"/>
<rect width="124.348" height="125.39" rx="6" transform="translate(565.989 175.61)" fill="#F2F2F2"/>
<rect width="113.14" height="114.082" transform="translate(570.511 180.169)" fill="#4F4F4F"/>
<rect width="124.348" height="125.39" rx="6" transform="translate(754.652)" fill="#F2F2F2"/>
<rect width="113.14" height="114.082" transform="translate(759.174 4.55969)" fill="#4F4F4F"/>
<rect width="124.348" height="125.39" rx="6" transform="translate(754.652 175.61)" fill="#F2F2F2"/>
<rect width="113.14" height="114.082" transform="translate(759.174 180.169)" fill="#4F4F4F"/>
<rect width="124.348" height="125.39" rx="6" fill="#F2F2F2"/>
<rect width="113.14" height="114.082" transform="translate(4.52197 4.55969)" fill="#4F4F4F"/>
<rect width="124.348" height="125.39" rx="6" transform="translate(0 175.61)" fill="#F2F2F2"/>
<rect width="113.14" height="114.082" transform="translate(4.52197 180.169)" fill="#4F4F4F"/>
<path d="M0 57.0647V52.1734L6.62677 50.6245L25.0524 0.407603L33.1339 0L51.0746 50.6245L57.7822 52.1734V57.0647H34.3461V52.1734L41.8618 50.6245L38.7909 41.5757H17.7791L14.6274 50.6245L22.2239 52.1734V57.0647H0ZM28.4466 10.5162L19.9611 35.054H36.6089L28.4466 10.5162Z" transform="translate(31.6523 31.9175)" fill="#F2F2F2"/>
<path d="M34.3461 52.1734V57.0647H9.69772V52.1734L17.7792 50.543V6.52168H7.27329L5.25293 14.6738H0V0H44.0438V14.6738H38.7909L36.7705 6.52168H26.2647V50.543L34.3461 52.1734Z" transform="translate(227.098 31.9175)" fill="#F2F2F2"/>
<path d="M50.5089 6.52168V33.8312C50.5089 41.8203 48.8388 47.8256 45.4985 51.8473C42.1581 55.869 36.5281 57.8799 28.6083 57.8799C20.6885 57.8799 15.0853 56.0321 11.7989 52.3365C8.51244 48.5865 6.86922 42.8257 6.86922 35.054V6.52168L0 4.89126V0.407603L23.0321 0V4.89126L15.3547 6.52168V35.054C15.3547 41.0322 16.3784 45.1898 18.4257 47.5267C20.473 49.8093 23.948 50.9506 28.8507 50.9506C33.7534 50.9506 37.1746 49.7006 39.1141 47.2007C41.0537 44.6463 42.0234 40.1898 42.0234 33.8312V6.52168L34.3461 4.89126V0.407603L57.3782 0V4.89126L50.5089 6.52168Z" transform="translate(408.978 31.9175)" fill="#F2F2F2"/>
<path d="M42.4275 57.0647V52.1734L50.1049 50.543V9.78252L47.6804 15.8966L35.1542 41.5757L28.6891 41.9833L16.1629 15.489L14.1425 9.78252V50.543L21.8199 52.1734V57.0647H0V52.1734L6.86922 50.543V6.52168L0 4.89126V0.407603L18.1832 0L32.8106 32.6084L48.0845 0.407603L65.0555 0V4.89126L58.1863 6.52168V50.543L65.0555 52.1734V57.0647H42.4275Z" transform="translate(597.641 31.9175)" fill="#F2F2F2"/>
<path d="M0 57.0647V52.1734L6.62677 50.6245L25.0524 0.407603L33.1339 0L51.0746 50.6245L57.7822 52.1734V57.0647H34.3461V52.1734L41.8618 50.6245L38.7909 41.5757H17.7791L14.6274 50.6245L22.2239 52.1734V57.0647H0ZM28.4466 10.5162L19.9611 35.054H36.6089L28.4466 10.5162Z" transform="translate(786.304 31.9175)" fill="#F2F2F2"/>
<path d="M19.7995 57.0647L6.30352 6.52168L0 4.89126V0.407603L22.628 0V4.89126L15.5972 6.52168L24.2443 43.4507L37.5787 0.407603L45.256 0L58.3479 44.3474L68.3689 6.52168L61.0148 4.89126V0.407603L82.8347 0V4.89126L76.4503 6.52168L62.227 57.0647H53.3374L41.2961 10.7608L38.7909 19.9726L27.8809 57.0647H19.7995Z" transform="translate(20.0664 208.563)" fill="#F2F2F2"/>
<path d="M32.7298 6.52168H15.3547V24.0487H33.942V30.5704H15.3547V50.543H33.942L35.5583 42.3909H40.8112V57.0647H0V52.1734L6.86922 50.543V6.52168L0 4.89126V0.407603L15.3547 0H40.0031V13.8586H34.7502L32.7298 6.52168Z" transform="translate(229.359 207.527)" fill="#F2F2F2"/>
<path d="M0 57.0647V52.1734L6.62677 50.6245L25.0524 0.407603L33.1339 0L51.0746 50.6245L57.7822 52.1734V57.0647H34.3461V52.1734L41.8618 50.6245L38.7909 41.5757H17.7791L14.6274 50.6245L22.2239 52.1734V57.0647H0ZM28.4466 10.5162L19.9611 35.054H36.6089L28.4466 10.5162Z" transform="translate(410.33 207.389)" fill="#F2F2F2"/>
<path d="M0 57.0647V52.1734L6.86922 50.543V6.52168L0 4.89126V0.407603L15.3547 0H24.2443C29.9552 0 34.4 1.30433 37.5787 3.913C40.8112 6.52168 42.4275 10.1086 42.4275 14.6738C42.4275 22.6628 38.9256 27.9617 31.9217 30.5704C33.2147 31.7117 34.831 34.1573 36.7705 37.9073L43.1548 50.8691L48.8927 52.1734V57.0647H36.7705L29.9013 41.9833C28.0156 37.9073 26.3724 35.2714 24.9716 34.0758C23.6247 32.8258 21.6313 32.2008 18.9914 32.2008H15.3547V50.543L22.2239 52.1734V57.0647H0ZM15.3547 6.52168V26.0867H21.4158C25.3488 26.0867 28.4197 25.19 30.6286 23.3965C32.8375 21.6031 33.942 19.2389 33.942 16.3042C33.942 13.3151 32.9992 10.951 31.1135 9.21187C29.2278 7.41841 26.8034 6.52168 23.8402 6.52168H15.3547Z" transform="translate(605.751 208.068)" fill="#F2F2F2"/>
<path d="M6.46514 41.1681L8.08143 49.7278C9.0512 50.2713 10.3712 50.7604 12.0413 51.1952C13.7115 51.5756 15.3547 51.7658 16.971 51.7658C18.5873 51.7658 20.1497 51.5756 21.6582 51.1952C23.1668 50.7604 24.4867 50.1626 25.6181 49.4017C26.7495 48.6408 27.6385 47.7441 28.285 46.7115C28.9854 45.6246 29.3356 44.4018 29.3356 43.0431C29.3356 41.467 28.9046 40.1627 28.0426 39.1301C27.1805 38.0431 26.0491 37.1192 24.6484 36.3584C23.3015 35.5431 21.766 34.8366 20.0419 34.2388C18.3179 33.641 16.5669 33.016 14.789 32.3638C12.9033 31.5486 11.0716 30.7334 9.29364 29.9182C7.56961 29.0486 6.0072 28.016 4.60642 26.8204C3.25951 25.5704 2.18199 24.0759 1.37384 22.3367C0.5657 20.5976 0.161628 18.4509 0.161628 15.8966C0.161628 13.1792 0.673452 10.8151 1.6971 8.80426C2.77462 6.79341 4.17541 5.13582 5.89944 3.83148C7.67736 2.52715 9.72465 1.57607 12.0413 0.978249C14.4119 0.326083 16.8902 0 19.4762 0C20.6615 0 21.9276 0.0815209 23.2745 0.244561C24.6214 0.407604 25.9414 0.624993 27.2344 0.896729C28.5274 1.11412 29.7397 1.38585 30.8711 1.71194C32.0025 1.98367 32.9722 2.22824 33.7804 2.44563L36.3664 3.26084L35.9624 17.1194H30.7094L27.9617 8.39666C26.4532 7.90753 24.9447 7.55428 23.4361 7.33689C21.9815 7.1195 20.473 7.0108 18.9105 7.0108C17.3481 7.0108 15.9204 7.22819 14.6274 7.66297C13.3882 8.0434 12.3107 8.58687 11.3948 9.29339C10.5328 9.9999 9.85934 10.7879 9.37446 11.6575C8.88957 12.5271 8.64713 13.4238 8.64713 14.3477C8.70101 16.6303 9.45527 18.4237 10.9099 19.7281C12.3646 21.0324 14.1694 22.1465 16.3245 23.0704C18.4795 23.9943 20.7962 24.8639 23.2745 25.6791C25.8067 26.4943 28.1234 27.5269 30.2245 28.7769C32.3796 29.9725 34.1575 31.5486 35.5583 33.5051C37.0129 35.4616 37.7403 38.0159 37.7403 41.1681C37.7403 43.9942 37.2015 46.4941 36.124 48.668C35.0465 50.8419 33.5649 52.6897 31.6792 54.2114C29.7935 55.6788 27.5577 56.8201 24.9716 57.6353C22.3856 58.3962 19.6109 58.7766 16.6477 58.7766C15.4625 58.7766 14.1694 58.6951 12.7687 58.5321C11.4218 58.369 10.0748 58.1516 8.72794 57.8799C7.43492 57.6625 6.2227 57.4179 5.0913 57.1462C3.9599 56.8201 3.01707 56.5212 2.2628 56.2495L0 55.4343V41.1681H6.46514Z" transform="translate(796.442 206.71)" fill="#F2F2F2"/>
</svg>
