<svg width="134" height="45" viewBox="0 0 134 45" fill="none" xmlns="http://www.w3.org/2000/svg">
<rect width="17.3765" height="17.4345" transform="translate(28.9755)" fill="#333333"/>
<rect width="17.3765" height="17.4345" transform="translate(28.9755 26.8374)" fill="#333333"/>
<rect width="17.3765" height="17.4345" transform="translate(57.951)" fill="#333333"/>
<rect width="17.3765" height="17.4345" transform="translate(57.951 26.8374)" fill="#333333"/>
<rect width="17.3765" height="17.4345" transform="translate(86.9266)" fill="#333333"/>
<rect width="17.3765" height="17.4345" transform="translate(86.9266 26.8374)" fill="#333333"/>
<rect width="17.3765" height="17.4345" transform="translate(115.902)" fill="#333333"/>
<rect width="17.3765" height="17.4345" transform="translate(115.902 26.8374)" fill="#333333"/>
<rect width="17.3765" height="17.4345" fill="#333333"/>
<rect width="17.3765" height="17.4345" transform="translate(0 26.8374)" fill="#333333"/>
<path d="M0 8.72085V7.97335L1.01776 7.73664L3.84764 0.0622915L5.08882 0L7.84423 7.73664L8.8744 7.97335V8.72085H5.27499V7.97335L6.42929 7.73664L5.95764 6.35376H2.73059L2.24653 7.73664L3.41323 7.97335V8.72085H0ZM4.36894 1.60713L3.0657 5.35709H5.62252L4.36894 1.60713Z" transform="translate(4.16678 4.18092)" fill="#F2F2F2"/>
<path d="M5.275 7.97335V8.72085H1.48941V7.97335L2.73059 7.72418V0.996668H1.11706L0.806764 2.2425H0V0H6.76441V2.2425H5.95764L5.64735 0.996668H4.03382V7.72418L5.275 7.97335Z" transform="translate(34.184 4.18092)" fill="#F2F2F2"/>
<path d="M7.75735 0.996668V5.17022C7.75735 6.39114 7.50084 7.3089 6.98782 7.92351C6.4748 8.53813 5.61011 8.84543 4.39376 8.84543C3.17741 8.84543 2.31686 8.56304 1.81212 7.99826C1.30737 7.42518 1.055 6.54479 1.055 5.35709V0.996668L0 0.747501V0.0622915L3.53735 0V0.747501L2.35823 0.996668V5.35709C2.35823 6.27071 2.51545 6.90608 2.82988 7.26322C3.14431 7.61206 3.67802 7.78647 4.431 7.78647C5.18398 7.78647 5.70941 7.59544 6.00729 7.21339C6.30517 6.82303 6.45411 6.14197 6.45411 5.17022V0.996668L5.275 0.747501V0.0622915L8.81235 0V0.747501L7.75735 0.996668Z" transform="translate(62.1178 4.18092)" fill="#F2F2F2"/>
<path d="M6.51617 8.72085V7.97335L7.69529 7.72418V1.495L7.32293 2.42938L5.39911 6.35376L4.40617 6.41605L2.48235 2.36709L2.17206 1.495V7.72418L3.35117 7.97335V8.72085H0V7.97335L1.055 7.72418V0.996668L0 0.747501V0.0622915L2.79264 0L5.03917 4.98334L7.38499 0.0622915L9.99146 0V0.747501L8.93646 0.996668V7.72418L9.99146 7.97335V8.72085H6.51617Z" transform="translate(91.0934 4.18092)" fill="#F2F2F2"/>
<path d="M0 8.72085V7.97335L1.01776 7.73664L3.84764 0.0622915L5.08882 0L7.84423 7.73664L8.8744 7.97335V8.72085H5.27499V7.97335L6.42929 7.73664L5.95764 6.35376H2.73059L2.24653 7.73664L3.41323 7.97335V8.72085H0ZM4.36894 1.60713L3.0657 5.35709H5.62252L4.36894 1.60713Z" transform="translate(120.069 4.18092)" fill="#F2F2F2"/>
<path d="M3.04088 8.72085L0.968117 0.996668L0 0.747501V0.0622915L3.47529 0V0.747501L2.39547 0.996668L3.72353 6.6403L5.77147 0.0622915L6.95058 0L8.96129 6.77735L10.5003 0.996668L9.37087 0.747501V0.0622915L12.722 0V0.747501L11.7415 0.996668L9.55705 8.72085H8.19176L6.34241 1.6445L5.95764 3.0523L4.28205 8.72085H3.04088Z" transform="translate(2.38739 31.1767)" fill="#F2F2F2"/>
<path d="M5.02676 0.996668H2.35823V3.67521H5.21294V4.67188H2.35823V7.72418H5.21294L5.46117 6.47834H6.26794V8.72085H0V7.97335L1.055 7.72418V0.996668L0 0.747501V0.0622915L2.35823 0H6.14382V2.11792H5.33705L5.02676 0.996668Z" transform="translate(34.5312 31.0183)" fill="#F2F2F2"/>
<path d="M0 8.72085V7.97335L1.01776 7.73664L3.84764 0.0622915L5.08882 0L7.84423 7.73664L8.8744 7.97335V8.72085H5.27499V7.97335L6.42929 7.73664L5.95764 6.35376H2.73059L2.24653 7.73664L3.41323 7.97335V8.72085H0ZM4.36894 1.60713L3.0657 5.35709H5.62252L4.36894 1.60713Z" transform="translate(62.3255 30.9972)" fill="#F2F2F2"/>
<path d="M0 8.72085V7.97335L1.055 7.72418V0.996668L0 0.747501V0.0622915L2.35823 0H3.72353C4.60062 0 5.28327 0.199334 5.77147 0.598001C6.26794 0.996668 6.51617 1.54484 6.51617 2.2425C6.51617 3.46342 5.97833 4.27322 4.90264 4.67188C5.10123 4.8463 5.34947 5.22005 5.64735 5.79314L6.62788 7.77401L7.50911 7.97335V8.72085H5.64735L4.59235 6.41605C4.30274 5.79314 4.05037 5.39032 3.83523 5.20759C3.62837 5.01656 3.32221 4.92105 2.91676 4.92105H2.35823V7.72418L3.41323 7.97335V8.72085H0ZM2.35823 0.996668V3.98667H3.28911C3.89315 3.98667 4.3648 3.84963 4.70405 3.57555C5.04331 3.30146 5.21294 2.94017 5.21294 2.49167C5.21294 2.03486 5.06813 1.67357 4.77853 1.40779C4.48892 1.13371 4.11656 0.996668 3.66147 0.996668H2.35823Z" transform="translate(92.339 31.101)" fill="#F2F2F2"/>
<path d="M0.99294 6.29147L1.24118 7.5996C1.39012 7.68265 1.59284 7.7574 1.84935 7.82385C2.10586 7.88199 2.35823 7.91106 2.60647 7.91106C2.8547 7.91106 3.09466 7.88199 3.32635 7.82385C3.55803 7.7574 3.76076 7.66604 3.93452 7.54976C4.10829 7.43348 4.24482 7.29644 4.34411 7.13864C4.45168 6.97253 4.50547 6.78565 4.50547 6.57801C4.50547 6.33715 4.43927 6.13782 4.30688 5.98001C4.17449 5.8139 4.00072 5.6727 3.78558 5.55643C3.57872 5.43184 3.3429 5.32387 3.07811 5.23251C2.81333 5.14115 2.54441 5.04563 2.27135 4.94597C1.98174 4.82138 1.70041 4.6968 1.42735 4.57222C1.16257 4.43933 0.922607 4.28152 0.70747 4.0988C0.500607 3.90777 0.335117 3.67937 0.211 3.41359C0.0868822 3.14781 0.0248235 2.81974 0.0248235 2.42938C0.0248235 2.0141 0.103431 1.65281 0.260647 1.3455C0.426137 1.0382 0.641274 0.784876 0.906058 0.585543C1.17912 0.386209 1.49355 0.240861 1.84935 0.1495C2.21343 0.0498333 2.59406 0 2.99123 0C3.17327 0 3.36772 0.0124583 3.57458 0.0373747C3.78145 0.0622916 3.98417 0.0955139 4.18276 0.137042C4.38135 0.170264 4.56752 0.211792 4.74129 0.261625C4.91505 0.303153 5.06399 0.340528 5.18811 0.37375L5.58529 0.498334L5.52323 2.61625H4.71647L4.29447 1.28321C4.06278 1.20846 3.83109 1.15447 3.59941 1.12125C3.376 1.08803 3.14431 1.07142 2.90435 1.07142C2.66439 1.07142 2.44511 1.10464 2.24653 1.17109C2.05621 1.22922 1.89072 1.31228 1.75006 1.42025C1.61766 1.52822 1.51423 1.64866 1.43976 1.78154C1.36529 1.91443 1.32806 2.05148 1.32806 2.19267C1.33633 2.5415 1.45217 2.81559 1.67559 3.01492C1.899 3.21426 2.17619 3.38452 2.50717 3.52571C2.83815 3.66691 3.19396 3.7998 3.57458 3.92438C3.96349 4.04897 4.31929 4.20677 4.64199 4.3978C4.97297 4.58052 5.24603 4.82138 5.46117 5.12038C5.68458 5.41938 5.79629 5.80975 5.79629 6.29147C5.79629 6.72336 5.71354 7.10541 5.54805 7.43764C5.38256 7.76986 5.15501 8.05225 4.86541 8.28481C4.5758 8.50906 4.23241 8.68347 3.83523 8.80806C3.43805 8.92433 3.01192 8.98247 2.55682 8.98247C2.37478 8.98247 2.17619 8.97002 1.96106 8.9451C1.75419 8.92018 1.54733 8.88696 1.34047 8.84543C1.14188 8.81221 0.955705 8.77483 0.78194 8.73331C0.608176 8.68347 0.463372 8.63779 0.347529 8.59626L0 8.47168V6.29147H0.99294Z" transform="translate(121.626 30.8934)" fill="#F2F2F2"/>
</svg>
