<svg width="20" height="18" viewBox="0 0 20 18" fill="none" xmlns="http://www.w3.org/2000/svg">
<path d="M19.9036 0.0905906C19.814 0.00336405 19.6818 -0.0236281 19.5654 0.0216844L0.203627 7.54117C0.0885485 7.58586 0.00960323 7.69285 0.000814175 7.81594C-0.00797488 7.93902 0.0549548 8.05613 0.162455 8.11672L4.17491 10.3775L5.56753 17.1845C5.5762 17.2326 5.59577 17.2774 5.62386 17.3159C5.62667 17.3197 5.62898 17.3227 5.63132 17.3257C5.68038 17.387 5.74995 17.4299 5.83105 17.4428C5.8414 17.4445 5.85179 17.4457 5.8621 17.4463C5.86878 17.4467 5.87542 17.4469 5.88206 17.4469C5.94296 17.4469 6.00066 17.4295 6.04984 17.3989C6.06648 17.3886 6.0823 17.3767 6.09698 17.3632C6.10155 17.359 6.10554 17.3552 6.10941 17.3512L9.12983 14.3231C9.25429 14.1983 9.25405 13.9962 9.12925 13.8718C9.00433 13.7472 8.80237 13.7475 8.67788 13.8723L6.30526 16.251L6.81792 11.8606L14.0638 15.8377C14.1368 15.8776 14.2179 15.8861 14.2922 15.8682C14.3003 15.8662 14.3078 15.8641 14.3152 15.8617C14.3885 15.8379 14.4529 15.7884 14.4939 15.7173C14.4959 15.7136 14.4978 15.7103 14.4996 15.707C14.5078 15.6912 14.5145 15.6757 14.5198 15.66L19.9813 0.42688C20.0234 0.309223 19.9931 0.177739 19.9036 0.0905906ZM1.06374 7.89188L16.8892 1.74575L4.44698 9.79809L1.06374 7.89188ZM6.35624 11.1038C6.3264 11.1277 6.30042 11.1574 6.28011 11.1923C6.27745 11.1969 6.27495 11.2015 6.27253 11.2061C6.25315 11.2436 6.24191 11.2832 6.23819 11.3228L5.7955 15.1141L4.81476 10.3204L15.561 3.36563L6.35624 11.1038ZM14.0432 15.0982L7.11808 11.2972L18.9815 1.32399L14.0432 15.0982Z" fill="white"/>
</svg>
